<svg data-v-423bf9ae="" xmlns="http://www.w3.org/2000/svg" viewBox="0 0 365.81447761917025 60" class="font"><!----><!----><defs data-v-423bf9ae=""><linearGradient data-v-423bf9ae="" gradientTransform="rotate(25)" id="e3e092e3-5e3a-471f-931b-33927e0af21b" x1="0%" y1="0%" x2="100%" y2="0%"><stop data-v-423bf9ae="" offset="0%" style="stop-color: rgb(32, 72, 79); stop-opacity: 1;"></stop><stop data-v-423bf9ae="" offset="100%" style="stop-color: rgb(78, 155, 171); stop-opacity: 1;"></stop></linearGradient></defs><g data-v-423bf9ae="" id="68bdcbec-f14f-41af-bacb-370256bc1cfb" fill="url(#e3e092e3-5e3a-471f-931b-33927e0af21b)" transform="matrix(5.012530817141852,0,0,5.012530817141852,-3.1077688606392826,-31.62906869250861)"><path d="M4.40 7.90L4.40 7.90Q5.45 7.90 6.31 8.32L6.31 8.32L6.31 8.32Q7.18 8.75 7.78 9.55L7.78 9.55L6.54 11.05L6.54 11.05Q6.17 10.01 5.50 9.34L5.50 9.34L5.50 9.34Q4.83 8.67 3.91 8.67L3.91 8.67L3.91 8.67Q3.11 8.67 2.63 9.17L2.63 9.17L2.63 9.17Q2.16 9.67 2.16 10.44L2.16 10.44L2.16 10.44Q2.16 11.12 2.48 11.57L2.48 11.57L2.48 11.57Q2.81 12.03 3.30 12.31L3.30 12.31L3.30 12.31Q3.78 12.60 4.61 12.98L4.61 12.98L4.61 12.98Q5.45 13.37 5.95 13.66L5.95 13.66L5.95 13.66Q6.45 13.96 6.80 14.45L6.80 14.45L6.80 14.45Q7.14 14.94 7.14 15.64L7.14 15.64L7.14 15.64Q7.14 16.87 6.27 17.56L6.27 17.56L6.27 17.56Q5.39 18.24 3.99 18.24L3.99 18.24L3.99 18.24Q3.02 18.24 2.14 17.84L2.14 17.84L2.14 17.84Q1.26 17.44 0.77 16.74L0.77 16.74L1.97 15.36L1.97 15.36Q2.37 16.37 3.02 16.97L3.02 16.97L3.02 16.97Q3.67 17.57 4.42 17.57L4.42 17.57L4.42 17.57Q5.00 17.57 5.36 17.22L5.36 17.22L5.36 17.22Q5.71 16.87 5.71 16.39L5.71 16.39L5.71 16.39Q5.71 15.93 5.43 15.58L5.43 15.58L5.43 15.58Q5.15 15.22 4.72 14.96L4.72 14.96L4.72 14.96Q4.28 14.70 3.56 14.35L3.56 14.35L3.56 14.35Q2.62 13.89 2.03 13.52L2.03 13.52L2.03 13.52Q1.44 13.15 1.03 12.54L1.03 12.54L1.03 12.54Q0.62 11.94 0.62 11.09L0.62 11.09L0.62 11.09Q0.62 10.18 1.11 9.45L1.11 9.45L1.11 9.45Q1.61 8.72 2.48 8.31L2.48 8.31L2.48 8.31Q3.35 7.90 4.40 7.90L4.40 7.90ZM12.18 11.00L12.18 11.00Q12.82 11.00 13.38 11.34L13.38 11.34L13.38 11.34Q13.93 11.68 14.24 12.38L14.24 12.38L12.78 13.16L12.78 13.16Q12.64 12.57 12.28 12.24L12.28 12.24L12.28 12.24Q11.91 11.91 11.49 11.91L11.49 11.91L11.49 11.91Q10.93 11.91 10.50 12.26L10.50 12.26L10.50 12.26Q10.07 12.60 9.84 13.15L9.84 13.15L9.84 13.15Q9.60 13.69 9.60 14.29L9.60 14.29L9.60 14.29Q9.60 15.23 9.90 15.92L9.90 15.92L9.90 15.92Q10.19 16.60 10.70 16.96L10.70 16.96L10.70 16.96Q11.21 17.32 11.86 17.32L11.86 17.32L11.86 17.32Q13.15 17.32 14.34 15.85L14.34 15.85L14.66 16.13L14.66 16.13Q13.96 17.15 13.17 17.70L13.17 17.70L13.17 17.70Q12.38 18.26 11.28 18.26L11.28 18.26L11.28 18.26Q10.40 18.26 9.70 17.84L9.70 17.84L9.70 17.84Q9.00 17.43 8.60 16.68L8.60 16.68L8.60 16.68Q8.20 15.93 8.20 14.95L8.20 14.95L8.20 14.95Q8.20 13.87 8.68 12.97L8.68 12.97L8.68 12.97Q9.16 12.07 10.06 11.54L10.06 11.54L10.06 11.54Q10.96 11.00 12.18 11.00L12.18 11.00ZM19.66 10.96L19.66 10.96Q20.47 10.96 21.01 11.38L21.01 11.38L21.01 11.38Q21.56 11.79 21.56 12.57L21.56 12.57L21.56 12.57Q21.56 13.20 20.88 13.98L20.88 13.98L20.88 13.98Q20.20 14.76 19.27 15.42L19.27 15.42L19.27 15.42Q18.34 16.09 17.68 16.38L17.68 16.38L17.68 16.38Q18.27 17.32 19.40 17.32L19.40 17.32L19.40 17.32Q20.03 17.32 20.67 16.96L20.67 16.96L20.67 16.96Q21.31 16.60 21.76 16.02L21.76 16.02L22.04 16.35L22.04 16.35Q21.31 17.26 20.50 17.76L20.50 17.76L20.50 17.76Q19.70 18.26 18.59 18.26L18.59 18.26L18.59 18.26Q17.70 18.26 16.99 17.85L16.99 17.85L16.99 17.85Q16.28 17.44 15.88 16.74L15.88 16.74L15.88 16.74Q15.48 16.03 15.48 15.15L15.48 15.15L15.48 15.15Q15.48 14.08 16.07 13.11L16.07 13.11L16.07 13.11Q16.65 12.14 17.61 11.55L17.61 11.55L17.61 11.55Q18.58 10.96 19.66 10.96L19.66 10.96ZM18.86 11.87L18.86 11.87Q18.33 11.87 17.91 12.26L17.91 12.26L17.91 12.26Q17.49 12.64 17.25 13.24L17.25 13.24L17.25 13.24Q17.01 13.85 17.01 14.49L17.01 14.49L17.01 14.49Q17.01 15.33 17.37 15.93L17.37 15.93L17.37 15.93Q17.89 15.64 18.47 15.11L18.47 15.11L18.47 15.11Q19.05 14.59 19.45 13.99L19.45 13.99L19.45 13.99Q19.84 13.38 19.84 12.89L19.84 12.89L19.84 12.89Q19.84 12.40 19.58 12.14L19.58 12.14L19.58 12.14Q19.32 11.87 18.86 11.87L18.86 11.87ZM28.53 10.96L28.53 10.96Q29.02 10.96 29.25 11.25L29.25 11.25L29.25 11.25Q29.47 11.54 29.53 11.92L29.53 11.92L29.53 11.92Q29.58 12.31 29.58 12.91L29.58 12.91L29.58 16.80L29.58 16.80Q29.58 16.97 29.69 17.12L29.69 17.12L29.69 17.12Q29.79 17.26 29.95 17.26L29.95 17.26L29.95 17.26Q30.16 17.26 30.32 17.13L30.32 17.13L30.32 17.13Q30.48 17.00 30.66 16.77L30.66 16.77L30.90 17.04L30.90 17.04Q30.65 17.53 30.20 17.86L30.20 17.86L30.20 17.86Q29.76 18.19 29.26 18.19L29.26 18.19L29.26 18.19Q28.59 18.19 28.25 17.80L28.25 17.80L28.25 17.80Q27.92 17.42 27.92 16.72L27.92 16.72L27.92 13.05L27.92 13.05Q27.92 12.85 27.87 12.71L27.87 12.71L27.87 12.71Q27.83 12.57 27.68 12.57L27.68 12.57L27.68 12.57Q27.20 12.57 26.71 13.59L26.71 13.59L26.71 13.59Q26.22 14.60 25.89 15.92L25.89 15.92L25.89 15.92Q25.55 17.23 25.55 17.91L25.55 17.91L23.91 18.27L23.91 12.39L23.91 12.39Q23.91 12.18 23.81 12.04L23.81 12.04L23.81 12.04Q23.72 11.90 23.53 11.90L23.53 11.90L23.53 11.90Q23.34 11.90 23.15 12.06L23.15 12.06L23.15 12.06Q22.96 12.22 22.83 12.43L22.83 12.43L22.58 12.15L22.58 12.15Q22.79 11.66 23.24 11.31L23.24 11.31L23.24 11.31Q23.69 10.96 24.21 10.96L24.21 10.96L24.21 10.96Q24.91 10.96 25.23 11.35L25.23 11.35L25.23 11.35Q25.55 11.73 25.55 12.42L25.55 12.42L25.55 15.12L25.61 15.12L25.61 15.12Q25.98 13.57 26.73 12.26L26.73 12.26L26.73 12.26Q27.48 10.96 28.53 10.96L28.53 10.96ZM35.76 10.96L35.76 10.96Q36.57 10.96 37.11 11.38L37.11 11.38L37.11 11.38Q37.66 11.79 37.66 12.57L37.66 12.57L37.66 12.57Q37.66 13.20 36.98 13.98L36.98 13.98L36.98 13.98Q36.30 14.76 35.37 15.42L35.37 15.42L35.37 15.42Q34.44 16.09 33.78 16.38L33.78 16.38L33.78 16.38Q34.37 17.32 35.50 17.32L35.50 17.32L35.50 17.32Q36.13 17.32 36.77 16.96L36.77 16.96L36.77 16.96Q37.41 16.60 37.86 16.02L37.86 16.02L38.14 16.35L38.14 16.35Q37.41 17.26 36.60 17.76L36.60 17.76L36.60 17.76Q35.80 18.26 34.69 18.26L34.69 18.26L34.69 18.26Q33.80 18.26 33.09 17.85L33.09 17.85L33.09 17.85Q32.38 17.44 31.98 16.74L31.98 16.74L31.98 16.74Q31.58 16.03 31.58 15.15L31.58 15.15L31.58 15.15Q31.58 14.08 32.16 13.11L32.16 13.11L32.16 13.11Q32.75 12.14 33.71 11.55L33.71 11.55L33.71 11.55Q34.68 10.96 35.76 10.96L35.76 10.96ZM34.96 11.87L34.96 11.87Q34.43 11.87 34.01 12.26L34.01 12.26L34.01 12.26Q33.59 12.64 33.35 13.24L33.35 13.24L33.35 13.24Q33.11 13.85 33.11 14.49L33.11 14.49L33.11 14.49Q33.11 15.33 33.47 15.93L33.47 15.93L33.47 15.93Q33.99 15.64 34.57 15.11L34.57 15.11L34.57 15.11Q35.15 14.59 35.55 13.99L35.55 13.99L35.55 13.99Q35.94 13.38 35.94 12.89L35.94 12.89L35.94 12.89Q35.94 12.40 35.68 12.14L35.68 12.14L35.68 12.14Q35.42 11.87 34.96 11.87L34.96 11.87ZM42.27 12.98L42.27 12.98Q41.68 13.64 41.25 14.62L41.25 14.62L41.25 14.62Q40.82 15.61 40.82 16.42L40.82 16.42L40.82 16.42Q40.82 17.21 41.24 17.72L41.24 17.72L41.24 17.72Q41.66 18.23 42.43 18.23L42.43 18.23L42.43 18.23Q43.05 18.23 43.62 17.92L43.62 17.92L43.62 17.92Q44.18 17.61 44.59 17.09L44.59 17.09L44.38 16.84L44.38 16.84Q43.90 17.15 43.48 17.15L43.48 17.15L43.48 17.15Q42.85 17.15 42.52 16.72L42.52 16.72L42.52 16.72Q42.20 16.28 42.20 15.64L42.20 15.64L42.20 15.64Q42.20 14.59 42.77 13.55L42.77 13.55L42.77 13.55Q43.34 12.52 44.16 11.76L44.16 11.76L43.90 11.49L43.90 11.49Q42.97 12.11 42.11 12.11L42.11 12.11L42.11 12.11Q41.57 12.11 41.13 11.68L41.13 11.68L41.13 11.68Q40.68 11.26 40.53 10.68L40.53 10.68L39.19 12.19L39.19 12.19Q39.24 12.39 39.47 12.59L39.47 12.59L39.47 12.59Q39.69 12.78 39.73 12.82L39.73 12.82L38.79 14.76L39.37 15.01L40.28 13.06L40.28 13.06Q40.64 13.20 41.08 13.20L41.08 13.20L41.08 13.20Q41.75 13.20 42.22 12.92L42.22 12.92L42.27 12.98ZM47.71 6.31L47.22 9.62L46.34 9.90L45.77 6.97L47.71 6.31ZM47.67 11.09L47.67 16.80L47.67 16.80Q47.67 17.01 47.77 17.14L47.77 17.14L47.77 17.14Q47.87 17.26 48.03 17.26L48.03 17.26L48.03 17.26Q48.38 17.26 48.75 16.77L48.75 16.77L49 17.04L49 17.04Q48.69 17.60 48.21 17.89L48.21 17.89L48.21 17.89Q47.73 18.19 47.25 18.19L47.25 18.19L47.25 18.19Q45.98 18.19 45.98 16.72L45.98 16.72L45.98 11.68L47.67 11.09ZM51.95 10.51L51.95 10.51Q52.91 10.51 52.91 11.27L52.91 11.27L52.91 11.27Q52.89 11.61 52.77 11.86L52.77 11.86L52.77 11.86Q52.64 12.11 52.49 12.31L52.49 12.31L52.49 12.31Q52.35 12.50 52.29 12.57L52.29 12.57L52.29 12.57Q52.47 12.78 52.95 13.17L52.95 13.17L52.95 13.17Q53.38 13.52 53.65 13.81L53.65 13.81L53.65 13.81Q53.91 14.10 54.10 14.54L54.10 14.54L54.10 14.54Q54.28 14.98 54.28 15.61L54.28 15.61L54.28 15.61Q54.28 16.34 53.92 16.95L53.92 16.95L53.92 16.95Q53.56 17.56 52.95 17.91L52.95 17.91L52.95 17.91Q52.33 18.26 51.59 18.26L51.59 18.26L51.59 18.26Q51.04 18.26 50.46 18.06L50.46 18.06L50.46 18.06Q49.87 17.86 49.57 17.51L49.57 17.51L50.60 16.14L50.60 16.14Q50.89 16.59 51.30 16.94L51.30 16.94L51.30 16.94Q51.70 17.29 52.11 17.29L52.11 17.29L52.11 17.29Q52.63 17.29 53.00 16.94L53.00 16.94L53.00 16.94Q53.38 16.59 53.38 16.06L53.38 16.06L53.38 16.06Q53.38 15.62 53.02 15.20L53.02 15.20L53.02 15.20Q52.65 14.78 51.98 14.18L51.98 14.18L51.98 14.18Q51.52 13.78 51.39 13.64L51.39 13.64L50.44 15.02L49.94 14.69L51.03 13.17L51.03 13.17Q50.75 12.67 50.75 12.01L50.75 12.01L50.75 12.01Q50.75 11.37 51.06 10.94L51.06 10.94L51.06 10.94Q51.37 10.51 51.95 10.51L51.95 10.51ZM51.95 11.09L51.95 11.09Q51.79 11.09 51.73 11.19L51.73 11.19L51.73 11.19Q51.67 11.28 51.67 11.47L51.67 11.47L51.67 11.47Q51.67 11.62 51.73 11.77L51.73 11.77L51.73 11.77Q51.79 11.93 51.86 12.08L51.86 12.08L51.86 12.08Q52.01 11.97 52.12 11.75L52.12 11.75L52.12 11.75Q52.23 11.52 52.23 11.35L52.23 11.35L52.23 11.35Q52.23 11.24 52.16 11.17L52.16 11.17L52.16 11.17Q52.08 11.09 51.95 11.09L51.95 11.09ZM63.69 10.96L63.69 10.96Q64.22 10.96 64.46 11.30L64.46 11.30L64.46 11.30Q64.71 11.65 64.71 12.32L64.71 12.32L64.71 16.80L64.71 16.80Q64.71 17.00 64.81 17.13L64.81 17.13L64.81 17.13Q64.90 17.26 65.07 17.26L65.07 17.26L65.07 17.26Q65.23 17.26 65.42 17.14L65.42 17.14L65.42 17.14Q65.60 17.01 65.77 16.77L65.77 16.77L66.02 17.04L66.02 17.04Q65.67 17.75 65.17 17.97L65.17 17.97L65.17 17.97Q64.67 18.19 64.39 18.19L64.39 18.19L64.39 18.19Q63.03 18.19 63.03 16.72L63.03 16.72L63.03 12.94L63.03 12.94Q63.03 12.80 62.97 12.68L62.97 12.68L62.97 12.68Q62.90 12.57 62.80 12.57L62.80 12.57L62.80 12.57Q62.51 12.57 62.20 13.24L62.20 13.24L62.20 13.24Q61.88 13.90 61.66 15.12L61.66 15.12L61.66 15.12Q61.45 16.34 61.45 17.91L61.45 17.91L59.75 18.27L59.75 12.94L59.75 12.94Q59.75 12.80 59.70 12.68L59.70 12.68L59.70 12.68Q59.64 12.57 59.54 12.57L59.54 12.57L59.54 12.57Q59.28 12.57 58.95 13.24L58.95 13.24L58.95 13.24Q58.62 13.92 58.39 15.13L58.39 15.13L58.39 15.13Q58.16 16.35 58.16 17.91L58.16 17.91L56.53 18.27L56.53 12.39L56.53 12.39Q56.53 12.17 56.43 12.03L56.43 12.03L56.43 12.03Q56.32 11.90 56.15 11.90L56.15 11.90L56.15 11.90Q55.99 11.90 55.80 12.04L55.80 12.04L55.80 12.04Q55.62 12.18 55.47 12.43L55.47 12.43L55.20 12.15L55.20 12.15Q55.55 11.42 56.07 11.19L56.07 11.19L56.07 11.19Q56.59 10.96 56.85 10.96L56.85 10.96L56.85 10.96Q58.17 10.96 58.17 12.43L58.17 12.43L58.17 14.10L58.23 14.10L58.23 14.10Q58.58 12.63 59.17 11.80L59.17 11.80L59.17 11.80Q59.77 10.96 60.41 10.96L60.41 10.96L60.41 10.96Q60.97 10.96 61.19 11.30L61.19 11.30L61.19 11.30Q61.42 11.63 61.42 12.32L61.42 12.32L61.42 14.10L61.50 14.10L61.50 14.10Q61.84 12.63 62.43 11.80L62.43 11.80L62.43 11.80Q63.03 10.96 63.69 10.96L63.69 10.96ZM70.25 10.93L70.52 11.26L70.52 11.26Q69.59 11.91 69.07 12.75L69.07 12.75L69.07 12.75Q68.54 13.58 68.54 14.70L68.54 14.70L68.54 14.70Q68.54 15.32 68.78 15.95L68.78 15.95L68.78 15.95Q69.02 16.58 69.48 16.99L69.48 16.99L69.48 16.99Q69.94 17.40 70.59 17.40L70.59 17.40L70.59 17.40Q71.40 17.40 71.90 16.81L71.90 16.81L71.90 16.81Q72.39 16.23 72.39 15.36L72.39 15.36L72.39 15.36Q72.39 14.70 72.05 14.02L72.05 14.02L72.05 14.02Q71.71 13.34 71.13 12.87L71.13 12.87L71.13 12.87Q70.56 12.40 69.90 12.35L69.90 12.35L69.90 12.35Q70.20 12.03 70.54 11.76L70.54 11.76L70.54 11.76Q70.88 11.49 71.40 11.12L71.40 11.12L71.40 11.12Q72.41 11.45 73.00 12.36L73.00 12.36L73.00 12.36Q73.60 13.27 73.60 14.36L73.60 14.36L73.60 14.36Q73.60 15.33 73.17 16.24L73.17 16.24L73.17 16.24Q72.74 17.15 71.94 17.72L71.94 17.72L71.94 17.72Q71.13 18.28 70.07 18.28L70.07 18.28L70.07 18.28Q69.19 18.28 68.45 17.87L68.45 17.87L68.45 17.87Q67.72 17.46 67.28 16.74L67.28 16.74L67.28 16.74Q66.85 16.02 66.85 15.15L66.85 15.15L66.85 15.15Q66.85 13.65 67.80 12.52L67.80 12.52L67.80 12.52Q68.74 11.38 70.25 10.93L70.25 10.93Z"></path></g><!----><!----></svg>