<svg data-v-423bf9ae="" xmlns="http://www.w3.org/2000/svg" viewBox="0 0 1776.6560396561586 193" class="fontAboveSlogan"><!----><!----><!----><g data-v-423bf9ae="" id="cf47de44-c265-44ec-9972-65f9b1170953" fill="black" transform="matrix(12.422360444668922,0,0,12.422360444668922,439.22743672371286,-23.045158328084483)"><path d="M3.35 4.37C1.54 4.37 0.60 5.11 0.60 6.37C0.60 8.93 5.26 7.84 5.26 9.59C5.26 10.54 4.05 10.70 3.47 10.70C2.11 10.70 1.58 10.00 1.51 9.28L0.42 9.28C0.49 10.51 1.51 11.59 3.46 11.59C5.19 11.59 6.31 10.85 6.31 9.49C6.31 6.86 1.65 7.95 1.65 6.27C1.65 5.59 2.23 5.26 3.32 5.26C4.49 5.26 4.94 5.75 5.03 6.36L6.09 6.36C5.96 5.33 5.19 4.37 3.35 4.37ZM10.81 10.64C9.25 10.64 8.27 9.42 8.27 7.98C8.27 6.54 9.25 5.32 10.81 5.32C11.80 5.32 12.52 5.88 12.84 6.68L13.97 6.68C13.57 5.32 12.32 4.37 10.67 4.37C8.57 4.37 7.22 5.98 7.22 7.98C7.22 9.98 8.57 11.59 10.67 11.59C12.32 11.59 13.57 10.64 13.97 9.28L12.84 9.28C12.52 10.08 11.80 10.64 10.81 10.64ZM18.40 10.64C16.98 10.64 16.07 9.65 15.92 8.40L21.78 8.40L21.78 7.98C21.78 5.98 20.45 4.37 18.31 4.37C16.17 4.37 14.84 5.98 14.84 7.98C14.84 9.98 16.24 11.59 18.38 11.59C20.05 11.59 21.08 10.72 21.57 9.46L20.43 9.46C20.05 10.16 19.38 10.64 18.40 10.64ZM18.31 5.32C19.66 5.32 20.50 6.23 20.69 7.42L15.93 7.42C16.13 6.23 16.97 5.32 18.31 5.32ZM23.07 4.48L23.07 11.48L24.12 11.48L24.12 7.45C24.12 6.19 25.07 5.32 26.24 5.32C27.38 5.32 28.20 6.16 28.20 7.43L28.20 11.48L29.25 11.48L29.25 7.41C29.25 5.42 27.89 4.37 26.45 4.37C25.31 4.37 24.63 4.90 24.12 5.57L24.12 4.48ZM34.12 10.64C32.70 10.64 31.79 9.65 31.64 8.40L37.51 8.40L37.51 7.98C37.51 5.98 36.18 4.37 34.03 4.37C31.89 4.37 30.56 5.98 30.56 7.98C30.56 9.98 31.96 11.59 34.10 11.59C35.77 11.59 36.81 10.72 37.30 9.46L36.15 9.46C35.77 10.16 35.10 10.64 34.12 10.64ZM34.03 5.32C35.38 5.32 36.22 6.23 36.41 7.42L31.65 7.42C31.85 6.23 32.69 5.32 34.03 5.32ZM42.42 4.37C40.68 4.37 39.98 5.73 39.84 6.20L39.84 4.48L38.79 4.48L38.79 11.48L39.84 11.48L39.84 8.40C39.84 6.86 40.80 5.42 42.36 5.42L42.49 5.42L42.49 4.37ZM43.62 11.48L44.67 11.48L44.67 4.48L43.62 4.48ZM43.58 1.93L43.58 3.30L44.72 3.30L44.72 1.93ZM48.93 4.37C47.12 4.37 46.19 5.11 46.19 6.37C46.19 8.93 50.85 7.84 50.85 9.59C50.85 10.54 49.63 10.70 49.06 10.70C47.70 10.70 47.17 10.00 47.10 9.28L46.00 9.28C46.07 10.51 47.10 11.59 49.04 11.59C50.78 11.59 51.90 10.85 51.90 9.49C51.90 6.86 47.24 7.95 47.24 6.27C47.24 5.59 47.81 5.26 48.90 5.26C50.08 5.26 50.53 5.75 50.61 6.36L51.67 6.36C51.55 5.33 50.78 4.37 48.93 4.37ZM58.97 7.29C58.97 6.05 59.82 5.32 60.86 5.32C61.84 5.32 62.59 6.10 62.59 7.28L62.59 11.48L63.64 11.48L63.64 7.25C63.64 5.49 62.40 4.37 61.05 4.37C59.67 4.37 58.93 5.31 58.65 5.78C58.20 4.89 57.34 4.37 56.42 4.37C55.29 4.37 54.61 4.98 54.29 5.54L54.29 4.48L53.24 4.48L53.24 11.48L54.29 11.48L54.29 7.29C54.29 6.05 55.15 5.32 56.18 5.32C57.16 5.32 57.92 6.10 57.92 7.28L57.92 11.48L58.97 11.48ZM68.43 4.37C66.29 4.37 64.96 5.98 64.96 7.98C64.96 9.98 66.29 11.59 68.43 11.59C70.57 11.59 71.90 9.98 71.90 7.98C71.90 5.98 70.57 4.37 68.43 4.37ZM68.43 10.64C66.88 10.64 66.01 9.42 66.01 7.98C66.01 6.54 66.88 5.32 68.43 5.32C69.99 5.32 70.85 6.54 70.85 7.98C70.85 9.42 69.99 10.64 68.43 10.64Z"></path></g><!----><!----><g data-v-423bf9ae="" id="3bd4b810-d19a-4a68-a786-f63ed6dffb49" fill="black" transform="matrix(4.687499580904879,0,0,4.687499580904879,-14.390601913454248,110.82812260137854)"><path d="M3.21 15.61L3.21 15.61L3.21 15.61Q3.14 15.04 3.10 14.36L3.10 14.36L3.10 14.36Q3.07 13.68 3.07 13.09L3.07 13.09L3.07 13.09Q3.07 12.15 3.13 11.29L3.13 11.29L3.13 11.29Q3.19 10.43 3.28 9.48L3.28 9.48L3.28 9.48Q3.37 8.54 3.49 7.43L3.49 7.43L3.49 7.43Q3.60 6.31 3.68 4.86L3.68 4.86L3.68 4.86Q3.86 4.86 4.21 4.96L4.21 4.96L4.21 4.96Q4.55 5.07 4.90 5.21L4.90 5.21L4.90 5.21Q5.25 5.35 5.52 5.49L5.52 5.49L5.52 5.49Q5.78 5.64 5.82 5.74L5.82 5.74L5.82 5.74Q5.59 6.29 5.40 7.18L5.40 7.18L5.40 7.18Q5.21 8.06 5.08 9.11L5.08 9.11L5.08 9.11Q4.96 10.16 4.89 11.27L4.89 11.27L4.89 11.27Q4.82 12.38 4.82 13.34L4.82 13.34L4.82 13.34Q4.82 13.79 4.83 14.22L4.83 14.22L4.83 14.22Q4.84 14.66 4.87 15.02L4.87 15.02L4.87 15.02Q5.17 14.59 5.55 13.78L5.55 13.78L5.55 13.78Q5.94 12.98 6.35 11.98L6.35 11.98L6.35 11.98Q6.76 10.99 7.17 9.91L7.17 9.91L7.17 9.91Q7.59 8.82 7.94 7.83L7.94 7.83L7.94 7.83Q8.29 6.85 8.53 6.05L8.53 6.05L8.53 6.05Q8.78 5.26 8.88 4.86L8.88 4.86L8.88 4.86Q9.06 4.86 9.42 4.96L9.42 4.96L9.42 4.96Q9.77 5.07 10.12 5.21L10.12 5.21L10.12 5.21Q10.46 5.35 10.72 5.49L10.72 5.49L10.72 5.49Q10.99 5.64 11.02 5.74L11.02 5.74L11.02 5.74Q10.78 6.29 10.59 7.18L10.59 7.18L10.59 7.18Q10.40 8.06 10.28 9.11L10.28 9.11L10.28 9.11Q10.15 10.16 10.08 11.27L10.08 11.27L10.08 11.27Q10.01 12.38 10.01 13.34L10.01 13.34L10.01 13.34Q10.01 13.75 10.02 14.15L10.02 14.15L10.02 14.15Q10.02 14.55 10.05 14.87L10.05 14.87L10.05 14.87Q10.50 13.71 10.98 12.56L10.98 12.56L10.98 12.56Q11.47 11.42 11.94 10.38L11.94 10.38L11.94 10.38Q12.42 9.34 12.87 8.43L12.87 8.43L12.87 8.43Q13.31 7.53 13.69 6.82L13.69 6.82L13.69 6.82Q14.07 6.12 14.35 5.66L14.35 5.66L14.35 5.66Q14.63 5.19 14.78 5.04L14.78 5.04L14.78 5.04Q15.11 5.08 15.45 5.27L15.45 5.27L15.45 5.27Q15.79 5.46 16.06 5.75L16.06 5.75L16.06 5.75Q15.65 6.08 15.13 6.81L15.13 6.81L15.13 6.81Q14.62 7.55 14.07 8.51L14.07 8.51L14.07 8.51Q13.52 9.48 12.97 10.57L12.97 10.57L12.97 10.57Q12.42 11.66 11.94 12.70L11.94 12.70L11.94 12.70Q11.47 13.73 11.10 14.63L11.10 14.63L11.10 14.63Q10.72 15.53 10.53 16.07L10.53 16.07L10.53 16.07Q10.16 16.24 9.81 16.24L9.81 16.24L9.81 16.24Q9.37 16.18 8.97 16.02L8.97 16.02L8.97 16.02Q8.57 15.85 8.40 15.61L8.40 15.61L8.40 15.61Q8.36 15.39 8.33 15.09L8.33 15.09L8.33 15.09Q8.30 14.78 8.29 14.49L8.29 14.49L8.29 14.49Q8.27 14.20 8.27 13.92L8.27 13.92L8.27 13.92Q8.26 13.65 8.26 13.45L8.26 13.45L8.26 13.45Q8.26 12.21 8.36 10.91L8.36 10.91L8.36 10.91Q8.46 9.62 8.60 8.13L8.60 8.13L8.60 8.13Q8.27 9.09 7.88 10.18L7.88 10.18L7.88 10.18Q7.49 11.27 7.06 12.34L7.06 12.34L7.06 12.34Q6.64 13.41 6.20 14.38L6.20 14.38L6.20 14.38Q5.75 15.36 5.33 16.07L5.33 16.07L5.33 16.07Q4.97 16.24 4.62 16.24L4.62 16.24L4.62 16.24Q4.17 16.18 3.77 16.02L3.77 16.02L3.77 16.02Q3.37 15.85 3.21 15.61ZM27.22 14.36L27.22 14.36L27.22 14.36Q27.22 13.78 27.41 12.85L27.41 12.85L27.41 12.85Q27.61 11.93 27.93 10.88L27.93 10.88L27.93 10.88Q27.01 10.95 26.07 11.06L26.07 11.06L26.07 11.06Q25.14 11.17 24.46 11.19L24.46 11.19L24.46 11.19Q23.83 12.66 23.46 13.89L23.46 13.89L23.46 13.89Q23.09 15.13 22.88 16.31L22.88 16.31L22.88 16.31Q22.34 16.18 21.99 15.87L21.99 15.87L21.99 15.87Q21.64 15.55 21.35 15.08L21.35 15.08L21.35 15.08Q21.46 14.85 21.61 14.50L21.61 14.50L21.61 14.50Q21.76 14.15 21.96 13.66L21.96 13.66L21.96 13.66Q22.16 13.16 22.42 12.50L22.42 12.50L22.42 12.50Q22.68 11.83 23.02 10.95L23.02 10.95L23.02 10.95Q22.55 10.75 22.40 10.40L22.40 10.40L22.40 10.40Q22.47 10.35 22.71 10.28L22.71 10.28L22.71 10.28Q22.96 10.22 23.32 10.15L23.32 10.15L23.51 9.70L23.51 9.70Q23.80 8.95 23.99 8.43L23.99 8.43L23.99 8.43Q24.18 7.91 24.31 7.41L24.31 7.41L24.31 7.41Q24.44 6.92 24.56 6.31L24.56 6.31L24.56 6.31Q24.68 5.71 24.85 4.79L24.85 4.79L24.85 4.79Q25.44 4.90 25.92 5.31L25.92 5.31L25.92 5.31Q26.40 5.71 26.75 6.29L26.75 6.29L26.75 6.29Q26.63 6.45 26.45 6.79L26.45 6.79L26.45 6.79Q26.26 7.13 26.05 7.59L26.05 7.59L26.05 7.59Q25.83 8.06 25.58 8.64L25.58 8.64L25.58 8.64Q25.33 9.23 25.03 9.87L25.03 9.87L25.03 9.87Q25.90 9.76 26.79 9.66L26.79 9.66L26.79 9.66Q27.68 9.56 28.36 9.52L28.36 9.52L28.36 9.52Q28.62 8.79 28.89 8.10L28.89 8.10L28.89 8.10Q29.16 7.41 29.43 6.83L29.43 6.83L29.43 6.83Q29.69 6.26 29.94 5.82L29.94 5.82L29.94 5.82Q30.18 5.39 30.38 5.18L30.38 5.18L30.38 5.18Q30.52 5.19 30.75 5.29L30.75 5.29L30.75 5.29Q30.98 5.38 31.22 5.50L31.22 5.50L31.22 5.50Q31.46 5.63 31.65 5.78L31.65 5.78L31.65 5.78Q31.85 5.92 31.92 6.05L31.92 6.05L31.92 6.05Q31.67 6.29 31.42 6.66L31.42 6.66L31.42 6.66Q31.16 7.04 30.92 7.53L30.92 7.53L30.92 7.53Q30.67 8.02 30.44 8.60L30.44 8.60L30.44 8.60Q30.20 9.17 29.99 9.79L29.99 9.79L29.99 9.79Q30.27 10.04 30.27 10.42L30.27 10.42L30.27 10.42Q30.27 10.68 30.16 10.91L30.16 10.91L30.16 10.91Q30.03 10.88 29.90 10.87L29.90 10.87L29.90 10.87Q29.78 10.86 29.64 10.85L29.64 10.85L29.64 10.85Q29.40 11.61 29.20 12.35L29.20 12.35L29.20 12.35Q29.01 13.09 28.88 13.76L28.88 13.76L28.88 13.76Q28.74 14.43 28.66 14.99L28.66 14.99L28.66 14.99Q28.59 15.55 28.59 15.93L28.59 15.93L28.59 15.93Q28.59 16.07 28.59 16.16L28.59 16.16L28.59 16.16Q28.60 16.24 28.62 16.30L28.62 16.30L28.62 16.30Q28.31 16.28 28.17 16.19L28.17 16.19L28.17 16.19Q28.03 16.10 27.96 16.00L27.96 16.00L27.96 16.00Q27.89 15.89 27.83 15.79L27.83 15.79L27.83 15.79Q27.78 15.68 27.65 15.62L27.65 15.62L27.65 15.62Q27.55 15.58 27.47 15.43L27.47 15.43L27.47 15.43Q27.38 15.27 27.33 15.08L27.33 15.08L27.33 15.08Q27.27 14.88 27.24 14.69L27.24 14.69L27.24 14.69Q27.22 14.49 27.22 14.36ZM43.99 9.21L43.99 9.21L43.99 9.21Q44.45 9.21 44.71 9.46L44.71 9.46L44.71 9.46Q44.97 9.72 44.97 10.16L44.97 10.16L44.97 10.16Q44.97 10.28 44.95 10.39L44.95 10.39L44.95 10.39Q44.93 10.51 44.90 10.60L44.90 10.60L44.90 10.60Q44.72 10.57 44.49 10.55L44.49 10.55L44.49 10.55Q44.27 10.53 43.96 10.53L43.96 10.53L43.96 10.53Q43.36 10.53 42.74 10.63L42.74 10.63L42.74 10.63Q42.13 10.74 41.57 10.81L41.57 10.81L41.57 10.81Q41.24 11.55 40.98 12.24L40.98 12.24L40.98 12.24Q40.71 12.94 40.52 13.51L40.52 13.51L40.52 13.51Q40.33 14.08 40.23 14.50L40.23 14.50L40.23 14.50Q40.12 14.92 40.11 15.13L40.11 15.13L40.11 15.13Q41.24 14.90 42.40 14.73L42.40 14.73L42.40 14.73Q43.55 14.56 44.83 14.48L44.83 14.48L44.83 14.48Q44.98 14.71 45.09 14.99L45.09 14.99L45.09 14.99Q45.19 15.27 45.19 15.60L45.19 15.60L45.19 15.60Q45.19 15.68 45.19 15.78L45.19 15.78L45.19 15.78Q45.19 15.88 45.16 15.97L45.16 15.97L45.16 15.97Q44.77 15.96 44.34 15.95L44.34 15.95L44.34 15.95Q43.90 15.95 43.20 15.95L43.20 15.95L43.20 15.95Q42.74 15.95 42.33 15.97L42.33 15.97L42.33 15.97Q41.92 15.99 41.50 16.03L41.50 16.03L41.50 16.03Q41.08 16.07 40.61 16.14L40.61 16.14L40.61 16.14Q40.14 16.21 39.55 16.31L39.55 16.31L39.55 16.31Q38.91 16.06 38.30 15.08L38.30 15.08L38.30 15.08Q38.54 14.57 38.97 13.54L38.97 13.54L38.97 13.54Q39.40 12.52 40.05 10.79L40.05 10.79L40.05 10.79Q39.42 10.60 39.23 10.09L39.23 10.09L39.23 10.09Q39.30 10.02 39.63 9.92L39.63 9.92L39.63 9.92Q39.97 9.81 40.46 9.70L40.46 9.70L40.46 9.70Q40.67 9.16 40.82 8.75L40.82 8.75L40.82 8.75Q40.96 8.34 41.08 7.99L41.08 7.99L41.08 7.99Q41.19 7.63 41.28 7.29L41.28 7.29L41.28 7.29Q41.37 6.94 41.45 6.54L41.45 6.54L41.45 6.54Q40.96 6.51 40.68 6.27L40.68 6.27L40.68 6.27Q40.40 6.02 40.40 5.63L40.40 5.63L40.40 5.63Q40.40 5.52 40.44 5.36L40.44 5.36L40.44 5.36Q40.47 5.21 40.52 5.10L40.52 5.10L40.52 5.10Q40.80 5.14 41.05 5.15L41.05 5.15L41.05 5.15Q41.31 5.17 41.73 5.17L41.73 5.17L41.73 5.17Q42.62 5.17 43.39 5.12L43.39 5.12L43.39 5.12Q44.16 5.07 44.78 5.01L44.78 5.01L44.78 5.01Q45.40 4.96 45.85 4.91L45.85 4.91L45.85 4.91Q46.30 4.86 46.54 4.86L46.54 4.86L46.54 4.86Q46.86 4.86 47.11 5.19L47.11 5.19L47.11 5.19Q47.36 5.53 47.49 6.15L47.49 6.15L47.49 6.15Q47.05 6.10 46.78 6.09L46.78 6.09L46.78 6.09Q46.51 6.08 46.30 6.08L46.30 6.08L46.30 6.08Q45.53 6.08 44.89 6.15L44.89 6.15L44.89 6.15Q44.25 6.23 43.67 6.31L43.67 6.31L43.67 6.31Q43.58 6.44 43.48 6.64L43.48 6.64L43.48 6.64Q43.37 6.83 43.20 7.18L43.20 7.18L43.20 7.18Q43.04 7.53 42.79 8.06L42.79 8.06L42.79 8.06Q42.55 8.60 42.20 9.39L42.20 9.39L42.20 9.39Q42.73 9.31 43.20 9.26L43.20 9.26L43.20 9.26Q43.67 9.21 43.99 9.21ZM63.25 7.46L63.25 7.46L63.25 7.46Q63.25 8.13 62.95 8.73L62.95 8.73L62.95 8.73Q62.65 9.32 62.12 9.79L62.12 9.79L62.12 9.79Q61.59 10.26 60.87 10.58L60.87 10.58L60.87 10.58Q60.16 10.91 59.32 11.02L59.32 11.02L59.32 11.02Q59.53 11.65 59.83 12.31L59.83 12.31L59.83 12.31Q60.13 12.98 60.48 13.59L60.48 13.59L60.48 13.59Q60.83 14.21 61.21 14.73L61.21 14.73L61.21 14.73Q61.59 15.25 61.95 15.58L61.95 15.58L61.95 15.58Q61.88 15.72 61.75 15.86L61.75 15.86L61.75 15.86Q61.61 16.00 61.44 16.12L61.44 16.12L61.44 16.12Q61.26 16.24 61.07 16.32L61.07 16.32L61.07 16.32Q60.89 16.39 60.72 16.39L60.72 16.39L60.72 16.39Q60.41 16.39 60.13 16.10L60.13 16.10L60.13 16.10Q59.85 15.81 59.56 15.17L59.56 15.17L59.56 15.17Q59.28 14.53 58.96 13.52L58.96 13.52L58.96 13.52Q58.65 12.50 58.27 11.07L58.27 11.07L58.27 11.07Q58.11 11.07 57.96 11.07L57.96 11.07L57.96 11.07Q57.81 11.07 57.72 11.05L57.72 11.05L57.72 11.05Q57.62 10.99 57.51 10.85L57.51 10.85L57.51 10.85Q57.13 11.66 56.84 12.38L56.84 12.38L56.84 12.38Q56.55 13.09 56.31 13.76L56.31 13.76L56.31 13.76Q56.08 14.42 55.91 15.04L55.91 15.04L55.91 15.04Q55.73 15.67 55.61 16.31L55.61 16.31L55.61 16.31Q55.13 16.20 54.78 15.90L54.78 15.90L54.78 15.90Q54.43 15.61 54.12 15.08L54.12 15.08L54.12 15.08Q54.18 14.95 54.24 14.83L54.24 14.83L54.24 14.83Q54.31 14.71 54.40 14.50L54.40 14.50L54.40 14.50Q54.50 14.28 54.65 13.94L54.65 13.94L54.65 13.94Q54.80 13.61 55.04 13.05L55.04 13.05L55.04 13.05Q55.29 12.49 55.63 11.68L55.63 11.68L55.63 11.68Q55.97 10.86 56.46 9.70L56.46 9.70L56.46 9.70Q56.69 9.18 56.85 8.79L56.85 8.79L56.85 8.79Q57.01 8.40 57.13 8.04L57.13 8.04L57.13 8.04Q57.26 7.69 57.36 7.33L57.36 7.33L57.36 7.33Q57.47 6.97 57.58 6.51L57.58 6.51L57.58 6.51Q56.94 6.73 56.38 7.01L56.38 7.01L56.38 7.01Q55.83 7.28 55.47 7.59L55.47 7.59L55.47 7.59Q55.34 7.50 55.21 7.34L55.21 7.34L55.21 7.34Q55.08 7.17 54.96 6.96L54.96 6.96L54.96 6.96Q54.85 6.76 54.77 6.55L54.77 6.55L54.77 6.55Q54.68 6.34 54.67 6.17L54.67 6.17L54.67 6.17Q55.09 5.89 55.70 5.66L55.70 5.66L55.70 5.66Q56.31 5.42 56.99 5.24L56.99 5.24L56.99 5.24Q57.68 5.07 58.39 4.97L58.39 4.97L58.39 4.97Q59.11 4.87 59.72 4.87L59.72 4.87L59.72 4.87Q61.40 4.87 62.33 5.56L62.33 5.56L62.33 5.56Q63.25 6.26 63.25 7.46ZM59.67 6.02L59.84 6.29L59.84 6.29Q59.74 6.41 59.53 6.79L59.53 6.79L59.53 6.79Q59.32 7.17 59.05 7.69L59.05 7.69L59.05 7.69Q58.77 8.22 58.47 8.83L58.47 8.83L58.47 8.83Q58.17 9.45 57.89 10.05L57.89 10.05L57.89 10.05Q58.94 10.05 59.82 9.86L59.82 9.86L59.82 9.86Q60.70 9.66 61.35 9.30L61.35 9.30L61.35 9.30Q61.99 8.95 62.35 8.46L62.35 8.46L62.35 8.46Q62.71 7.98 62.71 7.39L62.71 7.39L62.71 7.39Q62.71 6.69 62.20 6.32L62.20 6.32L62.20 6.32Q61.70 5.95 60.65 5.95L60.65 5.95L60.65 5.95Q60.41 5.95 60.17 5.97L60.17 5.97L60.17 5.97Q59.93 5.99 59.67 6.02L59.67 6.02ZM76.08 9.21L76.08 9.21L76.08 9.21Q76.54 9.21 76.80 9.46L76.80 9.46L76.80 9.46Q77.06 9.72 77.06 10.16L77.06 10.16L77.06 10.16Q77.06 10.28 77.03 10.39L77.03 10.39L77.03 10.39Q77.01 10.51 76.99 10.60L76.99 10.60L76.99 10.60Q76.80 10.57 76.58 10.55L76.58 10.55L76.58 10.55Q76.36 10.53 76.05 10.53L76.05 10.53L76.05 10.53Q75.45 10.53 74.83 10.63L74.83 10.63L74.83 10.63Q74.21 10.74 73.65 10.81L73.65 10.81L73.65 10.81Q73.33 11.55 73.07 12.24L73.07 12.24L73.07 12.24Q72.80 12.94 72.61 13.51L72.61 13.51L72.61 13.51Q72.42 14.08 72.32 14.50L72.32 14.50L72.32 14.50Q72.21 14.92 72.20 15.13L72.20 15.13L72.20 15.13Q73.33 14.90 74.49 14.73L74.49 14.73L74.49 14.73Q75.64 14.56 76.92 14.48L76.92 14.48L76.92 14.48Q77.07 14.71 77.17 14.99L77.17 14.99L77.17 14.99Q77.28 15.27 77.28 15.60L77.28 15.60L77.28 15.60Q77.28 15.68 77.28 15.78L77.28 15.78L77.28 15.78Q77.28 15.88 77.25 15.97L77.25 15.97L77.25 15.97Q76.86 15.96 76.43 15.95L76.43 15.95L76.43 15.95Q75.99 15.95 75.29 15.95L75.29 15.95L75.29 15.95Q74.83 15.95 74.42 15.97L74.42 15.97L74.42 15.97Q74.00 15.99 73.58 16.03L73.58 16.03L73.58 16.03Q73.16 16.07 72.69 16.14L72.69 16.14L72.69 16.14Q72.23 16.21 71.64 16.31L71.64 16.31L71.64 16.31Q70.99 16.06 70.39 15.08L70.39 15.08L70.39 15.08Q70.63 14.57 71.06 13.54L71.06 13.54L71.06 13.54Q71.48 12.52 72.14 10.79L72.14 10.79L72.14 10.79Q71.51 10.60 71.32 10.09L71.32 10.09L71.32 10.09Q71.39 10.02 71.72 9.92L71.72 9.92L71.72 9.92Q72.06 9.81 72.55 9.70L72.55 9.70L72.55 9.70Q72.76 9.16 72.91 8.75L72.91 8.75L72.91 8.75Q73.05 8.34 73.16 7.99L73.16 7.99L73.16 7.99Q73.28 7.63 73.37 7.29L73.37 7.29L73.37 7.29Q73.46 6.94 73.54 6.54L73.54 6.54L73.54 6.54Q73.05 6.51 72.77 6.27L72.77 6.27L72.77 6.27Q72.49 6.02 72.49 5.63L72.49 5.63L72.49 5.63Q72.49 5.52 72.53 5.36L72.53 5.36L72.53 5.36Q72.56 5.21 72.60 5.10L72.60 5.10L72.60 5.10Q72.88 5.14 73.14 5.15L73.14 5.15L73.14 5.15Q73.40 5.17 73.82 5.17L73.82 5.17L73.82 5.17Q74.70 5.17 75.47 5.12L75.47 5.12L75.47 5.12Q76.24 5.07 76.87 5.01L76.87 5.01L76.87 5.01Q77.49 4.96 77.94 4.91L77.94 4.91L77.94 4.91Q78.39 4.86 78.62 4.86L78.62 4.86L78.62 4.86Q78.95 4.86 79.20 5.19L79.20 5.19L79.20 5.19Q79.45 5.53 79.58 6.15L79.58 6.15L79.58 6.15Q79.14 6.10 78.87 6.09L78.87 6.09L78.87 6.09Q78.60 6.08 78.39 6.08L78.39 6.08L78.39 6.08Q77.62 6.08 76.98 6.15L76.98 6.15L76.98 6.15Q76.34 6.23 75.75 6.31L75.75 6.31L75.75 6.31Q75.67 6.44 75.56 6.64L75.56 6.64L75.56 6.64Q75.46 6.83 75.29 7.18L75.29 7.18L75.29 7.18Q75.12 7.53 74.88 8.06L74.88 8.06L74.88 8.06Q74.63 8.60 74.28 9.39L74.28 9.39L74.28 9.39Q74.82 9.31 75.28 9.26L75.28 9.26L75.28 9.26Q75.75 9.21 76.08 9.21ZM98.92 6.69L98.92 6.69L98.92 6.69Q98.36 6.69 98.06 6.38L98.06 6.38L98.06 6.38Q97.76 6.06 97.76 5.61L97.76 5.61L97.76 5.61Q97.76 5.50 97.80 5.35L97.80 5.35L97.80 5.35Q97.83 5.19 97.89 5.08L97.89 5.08L97.89 5.08Q98.07 5.17 98.43 5.20L98.43 5.20L98.43 5.20Q98.78 5.24 99.26 5.24L99.26 5.24L99.26 5.24Q99.97 5.24 100.88 5.17L100.88 5.17L100.88 5.17Q101.78 5.11 102.61 5.04L102.61 5.04L102.61 5.04Q103.43 4.97 104.06 4.91L104.06 4.91L104.06 4.91Q104.69 4.84 104.87 4.84L104.87 4.84L104.87 4.84Q105.39 4.84 105.62 5.23L105.62 5.23L105.62 5.23Q105.85 5.61 105.97 6.26L105.97 6.26L105.97 6.26Q105.60 6.23 105.24 6.21L105.24 6.21L105.24 6.21Q104.89 6.19 104.64 6.19L104.64 6.19L104.64 6.19Q104.19 6.19 103.73 6.22L103.73 6.22L103.73 6.22Q103.28 6.24 102.82 6.30L102.82 6.30L102.82 6.30Q102.62 6.71 102.38 7.26L102.38 7.26L102.38 7.26Q102.14 7.81 101.91 8.41L101.91 8.41L101.91 8.41Q101.68 9.02 101.47 9.61L101.47 9.61L101.47 9.61Q101.26 10.21 101.11 10.68L101.11 10.68L101.11 10.68Q100.80 11.61 100.57 12.39L100.57 12.39L100.57 12.39Q100.34 13.17 100.16 13.85L100.16 13.85L100.16 13.85Q99.99 14.53 99.86 15.15L99.86 15.15L99.86 15.15Q99.74 15.76 99.64 16.35L99.64 16.35L99.64 16.35Q98.70 16.21 98.07 15.18L98.07 15.18L98.07 15.18Q98.18 14.74 98.34 14.23L98.34 14.23L98.34 14.23Q98.50 13.72 98.72 13.07L98.72 13.07L98.72 13.07Q98.94 12.42 99.23 11.59L99.23 11.59L99.23 11.59Q99.53 10.77 99.90 9.72L99.90 9.72L99.90 9.72Q100.04 9.32 100.20 8.90L100.20 8.90L100.20 8.90Q100.35 8.47 100.50 8.05L100.50 8.05L100.50 8.05Q100.65 7.63 100.76 7.24L100.76 7.24L100.76 7.24Q100.88 6.85 100.97 6.52L100.97 6.52L100.97 6.52Q100.38 6.59 99.85 6.64L99.85 6.64L99.85 6.64Q99.33 6.69 98.92 6.69ZM116.84 14.36L116.84 14.36L116.84 14.36Q116.84 13.78 117.04 12.85L117.04 12.85L117.04 12.85Q117.24 11.93 117.56 10.88L117.56 10.88L117.56 10.88Q116.63 10.95 115.70 11.06L115.70 11.06L115.70 11.06Q114.77 11.17 114.09 11.19L114.09 11.19L114.09 11.19Q113.46 12.66 113.08 13.89L113.08 13.89L113.08 13.89Q112.71 15.13 112.50 16.31L112.50 16.31L112.50 16.31Q111.97 16.18 111.62 15.87L111.62 15.87L111.62 15.87Q111.27 15.55 110.98 15.08L110.98 15.08L110.98 15.08Q111.09 14.85 111.24 14.50L111.24 14.50L111.24 14.50Q111.38 14.15 111.59 13.66L111.59 13.66L111.59 13.66Q111.79 13.16 112.05 12.50L112.05 12.50L112.05 12.50Q112.31 11.83 112.64 10.95L112.64 10.95L112.64 10.95Q112.18 10.75 112.03 10.40L112.03 10.40L112.03 10.40Q112.10 10.35 112.34 10.28L112.34 10.28L112.34 10.28Q112.59 10.22 112.95 10.15L112.95 10.15L113.13 9.70L113.13 9.70Q113.43 8.95 113.62 8.43L113.62 8.43L113.62 8.43Q113.81 7.91 113.94 7.41L113.94 7.41L113.94 7.41Q114.07 6.92 114.19 6.31L114.19 6.31L114.19 6.31Q114.31 5.71 114.48 4.79L114.48 4.79L114.48 4.79Q115.07 4.90 115.55 5.31L115.55 5.31L115.55 5.31Q116.03 5.71 116.38 6.29L116.38 6.29L116.38 6.29Q116.26 6.45 116.07 6.79L116.07 6.79L116.07 6.79Q115.89 7.13 115.67 7.59L115.67 7.59L115.67 7.59Q115.46 8.06 115.21 8.64L115.21 8.64L115.21 8.64Q114.95 9.23 114.66 9.87L114.66 9.87L114.66 9.87Q115.53 9.76 116.42 9.66L116.42 9.66L116.42 9.66Q117.31 9.56 117.99 9.52L117.99 9.52L117.99 9.52Q118.24 8.79 118.52 8.10L118.52 8.10L118.52 8.10Q118.79 7.41 119.06 6.83L119.06 6.83L119.06 6.83Q119.32 6.26 119.57 5.82L119.57 5.82L119.57 5.82Q119.81 5.39 120.01 5.18L120.01 5.18L120.01 5.18Q120.15 5.19 120.38 5.29L120.38 5.29L120.38 5.29Q120.61 5.38 120.85 5.50L120.85 5.50L120.85 5.50Q121.09 5.63 121.28 5.78L121.28 5.78L121.28 5.78Q121.48 5.92 121.55 6.05L121.55 6.05L121.55 6.05Q121.30 6.29 121.04 6.66L121.04 6.66L121.04 6.66Q120.79 7.04 120.55 7.53L120.55 7.53L120.55 7.53Q120.30 8.02 120.06 8.60L120.06 8.60L120.06 8.60Q119.83 9.17 119.62 9.79L119.62 9.79L119.62 9.79Q119.90 10.04 119.90 10.42L119.90 10.42L119.90 10.42Q119.90 10.68 119.78 10.91L119.78 10.91L119.78 10.91Q119.66 10.88 119.53 10.87L119.53 10.87L119.53 10.87Q119.41 10.86 119.27 10.85L119.27 10.85L119.27 10.85Q119.03 11.61 118.83 12.35L118.83 12.35L118.83 12.35Q118.64 13.09 118.50 13.76L118.50 13.76L118.50 13.76Q118.37 14.43 118.29 14.99L118.29 14.99L118.29 14.99Q118.22 15.55 118.22 15.93L118.22 15.93L118.22 15.93Q118.22 16.07 118.22 16.16L118.22 16.16L118.22 16.16Q118.23 16.24 118.24 16.30L118.24 16.30L118.24 16.30Q117.94 16.28 117.80 16.19L117.80 16.19L117.80 16.19Q117.66 16.10 117.59 16.00L117.59 16.00L117.59 16.00Q117.52 15.89 117.46 15.79L117.46 15.79L117.46 15.79Q117.40 15.68 117.28 15.62L117.28 15.62L117.28 15.62Q117.18 15.58 117.10 15.43L117.10 15.43L117.10 15.43Q117.01 15.27 116.96 15.08L116.96 15.08L116.96 15.08Q116.90 14.88 116.87 14.69L116.87 14.69L116.87 14.69Q116.84 14.49 116.84 14.36ZM133.62 9.21L133.62 9.21L133.62 9.21Q134.08 9.21 134.34 9.46L134.34 9.46L134.34 9.46Q134.60 9.72 134.60 10.16L134.60 10.16L134.60 10.16Q134.60 10.28 134.57 10.39L134.57 10.39L134.57 10.39Q134.55 10.51 134.53 10.60L134.53 10.60L134.53 10.60Q134.34 10.57 134.12 10.55L134.12 10.55L134.12 10.55Q133.90 10.53 133.59 10.53L133.59 10.53L133.59 10.53Q132.99 10.53 132.37 10.63L132.37 10.63L132.37 10.63Q131.75 10.74 131.19 10.81L131.19 10.81L131.19 10.81Q130.87 11.55 130.61 12.24L130.61 12.24L130.61 12.24Q130.34 12.94 130.15 13.51L130.15 13.51L130.15 13.51Q129.96 14.08 129.86 14.50L129.86 14.50L129.86 14.50Q129.75 14.92 129.74 15.13L129.74 15.13L129.74 15.13Q130.87 14.90 132.03 14.73L132.03 14.73L132.03 14.73Q133.18 14.56 134.46 14.48L134.46 14.48L134.46 14.48Q134.61 14.71 134.71 14.99L134.71 14.99L134.71 14.99Q134.82 15.27 134.82 15.60L134.82 15.60L134.82 15.60Q134.82 15.68 134.82 15.78L134.82 15.78L134.82 15.78Q134.82 15.88 134.79 15.97L134.79 15.97L134.79 15.97Q134.40 15.96 133.97 15.95L133.97 15.95L133.97 15.95Q133.53 15.95 132.83 15.95L132.83 15.95L132.83 15.95Q132.37 15.95 131.96 15.97L131.96 15.97L131.96 15.97Q131.54 15.99 131.12 16.03L131.12 16.03L131.12 16.03Q130.70 16.07 130.23 16.14L130.23 16.14L130.23 16.14Q129.77 16.21 129.18 16.31L129.18 16.31L129.18 16.31Q128.53 16.06 127.93 15.08L127.93 15.08L127.93 15.08Q128.17 14.57 128.60 13.54L128.60 13.54L128.60 13.54Q129.02 12.52 129.68 10.79L129.68 10.79L129.68 10.79Q129.05 10.60 128.86 10.09L128.86 10.09L128.86 10.09Q128.93 10.02 129.26 9.92L129.26 9.92L129.26 9.92Q129.60 9.81 130.09 9.70L130.09 9.70L130.09 9.70Q130.30 9.16 130.44 8.75L130.44 8.75L130.44 8.75Q130.59 8.34 130.70 7.99L130.70 7.99L130.70 7.99Q130.82 7.63 130.91 7.29L130.91 7.29L130.91 7.29Q131.00 6.94 131.08 6.54L131.08 6.54L131.08 6.54Q130.59 6.51 130.31 6.27L130.31 6.27L130.31 6.27Q130.03 6.02 130.03 5.63L130.03 5.63L130.03 5.63Q130.03 5.52 130.07 5.36L130.07 5.36L130.07 5.36Q130.10 5.21 130.14 5.10L130.14 5.10L130.14 5.10Q130.42 5.14 130.68 5.15L130.68 5.15L130.68 5.15Q130.94 5.17 131.36 5.17L131.36 5.17L131.36 5.17Q132.24 5.17 133.01 5.12L133.01 5.12L133.01 5.12Q133.78 5.07 134.41 5.01L134.41 5.01L134.41 5.01Q135.03 4.96 135.48 4.91L135.48 4.91L135.48 4.91Q135.93 4.86 136.16 4.86L136.16 4.86L136.16 4.86Q136.49 4.86 136.74 5.19L136.74 5.19L136.74 5.19Q136.99 5.53 137.12 6.15L137.12 6.15L137.12 6.15Q136.68 6.10 136.41 6.09L136.41 6.09L136.41 6.09Q136.14 6.08 135.93 6.08L135.93 6.08L135.93 6.08Q135.16 6.08 134.52 6.15L134.52 6.15L134.52 6.15Q133.88 6.23 133.29 6.31L133.29 6.31L133.29 6.31Q133.21 6.44 133.10 6.64L133.10 6.64L133.10 6.64Q133 6.83 132.83 7.18L132.83 7.18L132.83 7.18Q132.66 7.53 132.42 8.06L132.42 8.06L132.42 8.06Q132.17 8.60 131.82 9.39L131.82 9.39L131.82 9.39Q132.36 9.31 132.82 9.26L132.82 9.26L132.82 9.26Q133.29 9.21 133.62 9.21ZM159.15 14.36L159.15 14.36L159.15 14.36Q159.15 13.78 159.35 12.85L159.35 12.85L159.35 12.85Q159.54 11.93 159.87 10.88L159.87 10.88L159.87 10.88Q158.94 10.95 158.01 11.06L158.01 11.06L158.01 11.06Q157.08 11.17 156.39 11.19L156.39 11.19L156.39 11.19Q155.76 12.66 155.39 13.89L155.39 13.89L155.39 13.89Q155.02 15.13 154.81 16.31L154.81 16.31L154.81 16.31Q154.28 16.18 153.93 15.87L153.93 15.87L153.93 15.87Q153.58 15.55 153.29 15.08L153.29 15.08L153.29 15.08Q153.40 14.85 153.54 14.50L153.54 14.50L153.54 14.50Q153.69 14.15 153.89 13.66L153.89 13.66L153.89 13.66Q154.10 13.16 154.36 12.50L154.36 12.50L154.36 12.50Q154.62 11.83 154.95 10.95L154.95 10.95L154.95 10.95Q154.49 10.75 154.34 10.40L154.34 10.40L154.34 10.40Q154.41 10.35 154.65 10.28L154.65 10.28L154.65 10.28Q154.90 10.22 155.26 10.15L155.26 10.15L155.44 9.70L155.44 9.70Q155.74 8.95 155.92 8.43L155.92 8.43L155.92 8.43Q156.11 7.91 156.25 7.41L156.25 7.41L156.25 7.41Q156.38 6.92 156.50 6.31L156.50 6.31L156.50 6.31Q156.62 5.71 156.79 4.79L156.79 4.79L156.79 4.79Q157.37 4.90 157.86 5.31L157.86 5.31L157.86 5.31Q158.34 5.71 158.69 6.29L158.69 6.29L158.69 6.29Q158.56 6.45 158.38 6.79L158.38 6.79L158.38 6.79Q158.20 7.13 157.98 7.59L157.98 7.59L157.98 7.59Q157.77 8.06 157.51 8.64L157.51 8.64L157.51 8.64Q157.26 9.23 156.97 9.87L156.97 9.87L156.97 9.87Q157.84 9.76 158.72 9.66L158.72 9.66L158.72 9.66Q159.61 9.56 160.30 9.52L160.30 9.52L160.30 9.52Q160.55 8.79 160.82 8.10L160.82 8.10L160.82 8.10Q161.10 7.41 161.36 6.83L161.36 6.83L161.36 6.83Q161.63 6.26 161.88 5.82L161.88 5.82L161.88 5.82Q162.12 5.39 162.32 5.18L162.32 5.18L162.32 5.18Q162.46 5.19 162.69 5.29L162.69 5.29L162.69 5.29Q162.92 5.38 163.16 5.50L163.16 5.50L163.16 5.50Q163.39 5.63 163.59 5.78L163.59 5.78L163.59 5.78Q163.79 5.92 163.86 6.05L163.86 6.05L163.86 6.05Q163.60 6.29 163.35 6.66L163.35 6.66L163.35 6.66Q163.10 7.04 162.85 7.53L162.85 7.53L162.85 7.53Q162.61 8.02 162.37 8.60L162.37 8.60L162.37 8.60Q162.13 9.17 161.92 9.79L161.92 9.79L161.92 9.79Q162.20 10.04 162.20 10.42L162.20 10.42L162.20 10.42Q162.20 10.68 162.09 10.91L162.09 10.91L162.09 10.91Q161.97 10.88 161.84 10.87L161.84 10.87L161.84 10.87Q161.71 10.86 161.57 10.85L161.57 10.85L161.57 10.85Q161.34 11.61 161.14 12.35L161.14 12.35L161.14 12.35Q160.94 13.09 160.81 13.76L160.81 13.76L160.81 13.76Q160.68 14.43 160.60 14.99L160.60 14.99L160.60 14.99Q160.52 15.55 160.52 15.93L160.52 15.93L160.52 15.93Q160.52 16.07 160.53 16.16L160.53 16.16L160.53 16.16Q160.54 16.24 160.55 16.30L160.55 16.30L160.55 16.30Q160.24 16.28 160.10 16.19L160.10 16.19L160.10 16.19Q159.96 16.10 159.89 16.00L159.89 16.00L159.89 16.00Q159.82 15.89 159.77 15.79L159.77 15.79L159.77 15.79Q159.71 15.68 159.59 15.62L159.59 15.62L159.59 15.62Q159.49 15.58 159.40 15.43L159.40 15.43L159.40 15.43Q159.32 15.27 159.26 15.08L159.26 15.08L159.26 15.08Q159.21 14.88 159.18 14.69L159.18 14.69L159.18 14.69Q159.15 14.49 159.15 14.36ZM176.60 4.98L176.60 4.98L176.60 4.98Q176.86 5.10 177.14 5.27L177.14 5.27L177.14 5.27Q177.42 5.45 177.66 5.63L177.66 5.63L177.66 5.63Q177.90 5.81 178.06 5.98L178.06 5.98L178.06 5.98Q178.22 6.16 178.23 6.27L178.23 6.27L178.23 6.27Q178.00 6.22 177.76 6.20L177.76 6.20L177.76 6.20Q177.52 6.17 177.32 6.17L177.32 6.17L177.32 6.17Q176.69 6.17 176.07 6.48L176.07 6.48L176.07 6.48Q175.45 6.79 174.89 7.32L174.89 7.32L174.89 7.32Q174.33 7.85 173.85 8.57L173.85 8.57L173.85 8.57Q173.38 9.28 173.03 10.09L173.03 10.09L173.03 10.09Q172.69 10.91 172.49 11.77L172.49 11.77L172.49 11.77Q172.30 12.64 172.30 13.48L172.30 13.48L172.30 13.48Q172.30 14.57 172.66 15.11L172.66 15.11L172.66 15.11Q173.03 15.64 173.73 15.64L173.73 15.64L173.73 15.64Q174.06 15.64 174.45 15.51L174.45 15.51L174.45 15.51Q174.85 15.37 175.25 15.13L175.25 15.13L175.25 15.13Q175.66 14.90 176.05 14.56L176.05 14.56L176.05 14.56Q176.44 14.22 176.78 13.82L176.78 13.82L176.78 13.82Q177.27 13.23 177.66 12.48L177.66 12.48L177.66 12.48Q178.05 11.73 178.32 10.89L178.32 10.89L178.32 10.89Q178.60 10.05 178.74 9.16L178.74 9.16L178.74 9.16Q178.89 8.27 178.89 7.42L178.89 7.42L178.89 7.42Q178.89 7.08 178.88 6.85L178.88 6.85L178.88 6.85Q178.86 6.62 178.84 6.46L178.84 6.46L178.84 6.46Q178.82 6.30 178.81 6.20L178.81 6.20L178.81 6.20Q178.79 6.10 178.78 6.03L178.78 6.03L178.78 6.03Q178.95 6.12 179.15 6.24L179.15 6.24L179.15 6.24Q179.35 6.36 179.53 6.59L179.53 6.59L179.53 6.59Q179.70 6.82 179.82 7.20L179.82 7.20L179.82 7.20Q179.94 7.57 179.94 8.18L179.94 8.18L179.94 8.18Q179.94 9.16 179.71 10.10L179.71 10.10L179.71 10.10Q179.48 11.05 179.07 11.90L179.07 11.90L179.07 11.90Q178.65 12.75 178.09 13.50L178.09 13.50L178.09 13.50Q177.53 14.24 176.89 14.80L176.89 14.80L176.89 14.80Q176.05 15.54 175.10 15.95L175.10 15.95L175.10 15.95Q174.15 16.35 173.26 16.35L173.26 16.35L173.26 16.35Q171.98 16.35 171.30 15.53L171.30 15.53L171.30 15.53Q170.62 14.71 170.62 13.12L170.62 13.12L170.62 13.12Q170.62 12.26 170.81 11.31L170.81 11.31L170.81 11.31Q171.00 10.36 171.34 9.44L171.34 9.44L171.34 9.44Q171.68 8.51 172.16 7.68L172.16 7.68L172.16 7.68Q172.63 6.85 173.20 6.21L173.20 6.21L173.20 6.21Q173.77 5.57 174.42 5.19L174.42 5.19L174.42 5.19Q175.07 4.82 175.76 4.82L175.76 4.82L175.76 4.82Q175.98 4.82 176.18 4.85L176.18 4.85L176.18 4.85Q176.37 4.89 176.60 4.98ZM196.78 7.46L196.78 7.46L196.78 7.46Q196.78 8.13 196.48 8.73L196.48 8.73L196.48 8.73Q196.18 9.32 195.65 9.79L195.65 9.79L195.65 9.79Q195.12 10.26 194.40 10.58L194.40 10.58L194.40 10.58Q193.69 10.91 192.85 11.02L192.85 11.02L192.85 11.02Q193.06 11.65 193.36 12.31L193.36 12.31L193.36 12.31Q193.66 12.98 194.01 13.59L194.01 13.59L194.01 13.59Q194.36 14.21 194.74 14.73L194.74 14.73L194.74 14.73Q195.12 15.25 195.48 15.58L195.48 15.58L195.48 15.58Q195.41 15.72 195.28 15.86L195.28 15.86L195.28 15.86Q195.15 16.00 194.97 16.12L194.97 16.12L194.97 16.12Q194.80 16.24 194.61 16.32L194.61 16.32L194.61 16.32Q194.42 16.39 194.25 16.39L194.25 16.39L194.25 16.39Q193.94 16.39 193.66 16.10L193.66 16.10L193.66 16.10Q193.38 15.81 193.09 15.17L193.09 15.17L193.09 15.17Q192.81 14.53 192.49 13.52L192.49 13.52L192.49 13.52Q192.18 12.50 191.80 11.07L191.80 11.07L191.80 11.07Q191.65 11.07 191.49 11.07L191.49 11.07L191.49 11.07Q191.34 11.07 191.25 11.05L191.25 11.05L191.25 11.05Q191.16 10.99 191.04 10.85L191.04 10.85L191.04 10.85Q190.67 11.66 190.37 12.38L190.37 12.38L190.37 12.38Q190.08 13.09 189.85 13.76L189.85 13.76L189.85 13.76Q189.62 14.42 189.44 15.04L189.44 15.04L189.44 15.04Q189.27 15.67 189.14 16.31L189.14 16.31L189.14 16.31Q188.66 16.20 188.31 15.90L188.31 15.90L188.31 15.90Q187.96 15.61 187.66 15.08L187.66 15.08L187.66 15.08Q187.71 14.95 187.77 14.83L187.77 14.83L187.77 14.83Q187.84 14.71 187.94 14.50L187.94 14.50L187.94 14.50Q188.03 14.28 188.18 13.94L188.18 13.94L188.18 13.94Q188.33 13.61 188.57 13.05L188.57 13.05L188.57 13.05Q188.82 12.49 189.16 11.68L189.16 11.68L189.16 11.68Q189.50 10.86 189.99 9.70L189.99 9.70L189.99 9.70Q190.22 9.18 190.38 8.79L190.38 8.79L190.38 8.79Q190.54 8.40 190.67 8.04L190.67 8.04L190.67 8.04Q190.79 7.69 190.90 7.33L190.90 7.33L190.90 7.33Q191.00 6.97 191.11 6.51L191.11 6.51L191.11 6.51Q190.47 6.73 189.92 7.01L189.92 7.01L189.92 7.01Q189.36 7.28 189.00 7.59L189.00 7.59L189.00 7.59Q188.87 7.50 188.74 7.34L188.74 7.34L188.74 7.34Q188.61 7.17 188.50 6.96L188.50 6.96L188.50 6.96Q188.38 6.76 188.30 6.55L188.30 6.55L188.30 6.55Q188.22 6.34 188.20 6.17L188.20 6.17L188.20 6.17Q188.62 5.89 189.23 5.66L189.23 5.66L189.23 5.66Q189.84 5.42 190.53 5.24L190.53 5.24L190.53 5.24Q191.21 5.07 191.93 4.97L191.93 4.97L191.93 4.97Q192.64 4.87 193.26 4.87L193.26 4.87L193.26 4.87Q194.94 4.87 195.86 5.56L195.86 5.56L195.86 5.56Q196.78 6.26 196.78 7.46ZM193.20 6.02L193.37 6.29L193.37 6.29Q193.27 6.41 193.06 6.79L193.06 6.79L193.06 6.79Q192.85 7.17 192.58 7.69L192.58 7.69L192.58 7.69Q192.30 8.22 192.00 8.83L192.00 8.83L192.00 8.83Q191.70 9.45 191.42 10.05L191.42 10.05L191.42 10.05Q192.47 10.05 193.35 9.86L193.35 9.86L193.35 9.86Q194.24 9.66 194.88 9.30L194.88 9.30L194.88 9.30Q195.52 8.95 195.88 8.46L195.88 8.46L195.88 8.46Q196.24 7.98 196.24 7.39L196.24 7.39L196.24 7.39Q196.24 6.69 195.73 6.32L195.73 6.32L195.73 6.32Q195.23 5.95 194.18 5.95L194.18 5.95L194.18 5.95Q193.94 5.95 193.70 5.97L193.70 5.97L193.70 5.97Q193.47 5.99 193.20 6.02L193.20 6.02ZM204.36 14.38L204.36 14.38L204.36 14.38Q204.36 13.87 204.52 13.07L204.52 13.07L204.52 13.07Q204.68 12.26 204.94 11.33L204.94 11.33L204.94 11.33Q205.20 10.40 205.53 9.43L205.53 9.43L205.53 9.43Q205.87 8.46 206.22 7.60L206.22 7.60L206.22 7.60Q206.57 6.75 206.91 6.10L206.91 6.10L206.91 6.10Q207.24 5.46 207.51 5.18L207.51 5.18L207.51 5.18Q207.65 5.19 207.88 5.29L207.88 5.29L207.88 5.29Q208.11 5.38 208.35 5.50L208.35 5.50L208.35 5.50Q208.59 5.63 208.78 5.78L208.78 5.78L208.78 5.78Q208.98 5.92 209.03 6.05L209.03 6.05L209.03 6.05Q208.63 6.41 208.23 7.15L208.23 7.15L208.23 7.15Q207.83 7.88 207.46 8.82L207.46 8.82L207.46 8.82Q207.09 9.76 206.77 10.80L206.77 10.80L206.77 10.80Q206.44 11.84 206.21 12.82L206.21 12.82L206.21 12.82Q205.97 13.80 205.83 14.64L205.83 14.64L205.83 14.64Q205.70 15.48 205.70 16.00L205.70 16.00L205.70 16.00Q205.70 16.24 205.74 16.30L205.74 16.30L205.74 16.30Q205.44 16.28 205.30 16.19L205.30 16.19L205.30 16.19Q205.16 16.10 205.08 16.00L205.08 16.00L205.08 16.00Q205.00 15.89 204.94 15.79L204.94 15.79L204.94 15.79Q204.88 15.68 204.75 15.62L204.75 15.62L204.75 15.62Q204.65 15.58 204.58 15.43L204.58 15.43L204.58 15.43Q204.51 15.27 204.46 15.09L204.46 15.09L204.46 15.09Q204.41 14.90 204.39 14.70L204.39 14.70L204.39 14.70Q204.36 14.50 204.36 14.38ZM217.74 7.28L217.74 7.28L217.74 7.28Q217.69 7.08 217.65 6.82L217.65 6.82L217.65 6.82Q217.62 6.57 217.62 6.06L217.62 6.06L217.62 6.06Q217.62 5.74 217.63 5.41L217.63 5.41L217.63 5.41Q217.64 5.08 217.76 4.84L217.76 4.84L217.76 4.84Q218.44 4.97 219.22 5.07L219.22 5.07L219.22 5.07Q220.00 5.18 220.81 5.26L220.81 5.26L220.81 5.26Q221.62 5.35 222.43 5.40L222.43 5.40L222.43 5.40Q223.24 5.45 224.00 5.45L224.00 5.45L224.00 5.45Q225.04 5.45 225.67 5.36L225.67 5.36L225.67 5.36Q225.89 5.67 225.95 6.09L225.95 6.09L225.95 6.09Q226.00 6.51 226.00 6.87L226.00 6.87L226.00 6.87Q224.39 7.53 222.95 8.55L222.95 8.55L222.95 8.55Q221.51 9.56 220.33 10.67L220.33 10.67L220.33 10.67Q219.16 11.77 218.30 12.85L218.30 12.85L218.30 12.85Q217.45 13.93 217.03 14.73L217.03 14.73L217.03 14.73Q217.28 14.69 217.55 14.65L217.55 14.65L217.55 14.65Q217.81 14.62 218.12 14.59L218.12 14.59L218.12 14.59Q218.43 14.56 218.81 14.53L218.81 14.53L218.81 14.53Q219.18 14.50 219.67 14.48L219.67 14.48L219.67 14.48Q220.36 14.43 220.88 14.33L220.88 14.33L220.88 14.33Q221.40 14.22 221.76 14.11L221.76 14.11L221.76 14.11Q222.12 13.99 222.34 13.88L222.34 13.88L222.34 13.88Q222.56 13.78 222.66 13.71L222.66 13.71L222.66 13.71Q222.71 13.83 222.79 14.08L222.79 14.08L222.79 14.08Q222.87 14.34 222.93 14.64L222.93 14.64L222.93 14.64Q222.99 14.94 223.03 15.25L223.03 15.25L223.03 15.25Q223.08 15.57 223.08 15.83L223.08 15.83L223.08 15.83Q223.08 15.97 223.07 16.02L223.07 16.02L223.07 16.02Q223.06 16.07 223.05 16.13L223.05 16.13L223.05 16.13Q222.42 16.09 221.78 16.03L221.78 16.03L221.78 16.03Q221.14 15.97 220.51 15.97L220.51 15.97L220.51 15.97Q219.67 15.97 218.77 16.07L218.77 16.07L218.77 16.07Q217.87 16.16 217.03 16.34L217.03 16.34L217.03 16.34Q216.20 16.53 215.51 16.83L215.51 16.83L215.51 16.83Q214.82 17.12 214.40 17.53L214.40 17.53L214.40 17.53Q214.28 17.16 214.16 16.91L214.16 16.91L214.16 16.91Q214.05 16.65 214.05 16.28L214.05 16.28L214.05 16.28Q214.05 15.92 214.19 15.70L214.19 15.70L214.19 15.70Q214.34 15.48 214.59 15.34L214.59 15.34L214.59 15.34Q215.43 14.14 216.50 12.96L216.50 12.96L216.50 12.96Q217.57 11.77 218.79 10.67L218.79 10.67L218.79 10.67Q220.01 9.56 221.31 8.56L221.31 8.56L221.31 8.56Q222.61 7.56 223.92 6.73L223.92 6.73L223.92 6.73Q223.08 6.69 222.14 6.69L222.14 6.69L222.14 6.69Q221.48 6.69 220.84 6.72L220.84 6.72L220.84 6.72Q220.19 6.75 219.62 6.81L219.62 6.81L219.62 6.81Q219.04 6.87 218.56 6.99L218.56 6.99L218.56 6.99Q218.08 7.11 217.74 7.28ZM238.57 4.98L238.57 4.98L238.57 4.98Q238.84 5.10 239.12 5.27L239.12 5.27L239.12 5.27Q239.40 5.45 239.64 5.63L239.64 5.63L239.64 5.63Q239.88 5.81 240.04 5.98L240.04 5.98L240.04 5.98Q240.20 6.16 240.21 6.27L240.21 6.27L240.21 6.27Q239.97 6.22 239.74 6.20L239.74 6.20L239.74 6.20Q239.50 6.17 239.30 6.17L239.30 6.17L239.30 6.17Q238.67 6.17 238.05 6.48L238.05 6.48L238.05 6.48Q237.43 6.79 236.87 7.32L236.87 7.32L236.87 7.32Q236.31 7.85 235.83 8.57L235.83 8.57L235.83 8.57Q235.35 9.28 235.01 10.09L235.01 10.09L235.01 10.09Q234.67 10.91 234.47 11.77L234.47 11.77L234.47 11.77Q234.28 12.64 234.28 13.48L234.28 13.48L234.28 13.48Q234.28 14.57 234.64 15.11L234.64 15.11L234.64 15.11Q235.00 15.64 235.70 15.64L235.70 15.64L235.70 15.64Q236.04 15.64 236.43 15.51L236.43 15.51L236.43 15.51Q236.82 15.37 237.23 15.13L237.23 15.13L237.23 15.13Q237.64 14.90 238.03 14.56L238.03 14.56L238.03 14.56Q238.42 14.22 238.76 13.82L238.76 13.82L238.76 13.82Q239.25 13.23 239.64 12.48L239.64 12.48L239.64 12.48Q240.03 11.73 240.30 10.89L240.30 10.89L240.30 10.89Q240.58 10.05 240.72 9.16L240.72 9.16L240.72 9.16Q240.87 8.27 240.87 7.42L240.87 7.42L240.87 7.42Q240.87 7.08 240.86 6.85L240.86 6.85L240.86 6.85Q240.84 6.62 240.82 6.46L240.82 6.46L240.82 6.46Q240.80 6.30 240.79 6.20L240.79 6.20L240.79 6.20Q240.77 6.10 240.76 6.03L240.76 6.03L240.76 6.03Q240.93 6.12 241.13 6.24L241.13 6.24L241.13 6.24Q241.33 6.36 241.51 6.59L241.51 6.59L241.51 6.59Q241.68 6.82 241.80 7.20L241.80 7.20L241.80 7.20Q241.92 7.57 241.92 8.18L241.92 8.18L241.92 8.18Q241.92 9.16 241.69 10.10L241.69 10.10L241.69 10.10Q241.46 11.05 241.04 11.90L241.04 11.90L241.04 11.90Q240.63 12.75 240.07 13.50L240.07 13.50L240.07 13.50Q239.51 14.24 238.87 14.80L238.87 14.80L238.87 14.80Q238.03 15.54 237.08 15.95L237.08 15.95L237.08 15.95Q236.12 16.35 235.24 16.35L235.24 16.35L235.24 16.35Q233.95 16.35 233.27 15.53L233.27 15.53L233.27 15.53Q232.60 14.71 232.60 13.12L232.60 13.12L232.60 13.12Q232.60 12.26 232.78 11.31L232.78 11.31L232.78 11.31Q232.97 10.36 233.32 9.44L233.32 9.44L233.32 9.44Q233.66 8.51 234.14 7.68L234.14 7.68L234.14 7.68Q234.61 6.85 235.18 6.21L235.18 6.21L235.18 6.21Q235.75 5.57 236.40 5.19L236.40 5.19L236.40 5.19Q237.05 4.82 237.73 4.82L237.73 4.82L237.73 4.82Q237.96 4.82 238.15 4.85L238.15 4.85L238.15 4.85Q238.35 4.89 238.57 4.98ZM250.49 16.24L250.49 16.24L250.49 16.24Q249.69 16.00 249.41 15.79L249.41 15.79L249.41 15.79Q249.13 15.57 249.13 15.19L249.13 15.19L249.13 15.19Q249.13 14.77 249.33 14.01L249.33 14.01L249.33 14.01Q249.52 13.24 249.84 12.31L249.84 12.31L249.84 12.31Q250.15 11.37 250.56 10.35L250.56 10.35L250.56 10.35Q250.96 9.32 251.38 8.39L251.38 8.39L251.38 8.39Q251.80 7.45 252.20 6.67L252.20 6.67L252.20 6.67Q252.60 5.89 252.91 5.46L252.91 5.46L252.81 4.87L252.81 4.87Q253.01 4.87 253.36 4.97L253.36 4.97L253.36 4.97Q253.71 5.07 254.06 5.21L254.06 5.21L254.06 5.21Q254.42 5.35 254.69 5.49L254.69 5.49L254.69 5.49Q254.97 5.64 255.00 5.74L255.00 5.74L255.00 5.74Q254.93 6.08 254.88 6.76L254.88 6.76L254.88 6.76Q254.84 7.43 254.84 8.20L254.84 8.20L254.84 8.20Q254.84 9.73 254.96 11.19L254.96 11.19L254.96 11.19Q255.08 12.66 255.51 14.17L255.51 14.17L255.51 14.17Q255.74 13.05 256.00 11.94L256.00 11.94L256.00 11.94Q256.26 10.82 256.54 9.81L256.54 9.81L256.54 9.81Q256.82 8.79 257.10 7.92L257.10 7.92L257.10 7.92Q257.38 7.06 257.63 6.40L257.63 6.40L257.63 6.40Q257.89 5.75 258.12 5.38L258.12 5.38L258.12 5.38Q258.34 5.01 258.52 4.98L258.52 4.98L258.52 4.98Q258.68 5.01 258.86 5.10L258.86 5.10L258.86 5.10Q259.04 5.19 259.21 5.32L259.21 5.32L259.21 5.32Q259.38 5.45 259.52 5.60L259.52 5.60L259.52 5.60Q259.66 5.75 259.74 5.91L259.74 5.91L259.74 5.91Q259.29 6.09 258.85 6.76L258.85 6.76L258.85 6.76Q258.41 7.43 258.01 8.39L258.01 8.39L258.01 8.39Q257.61 9.35 257.27 10.47L257.27 10.47L257.27 10.47Q256.93 11.59 256.67 12.68L256.67 12.68L256.67 12.68Q256.41 13.76 256.26 14.69L256.26 14.69L256.26 14.69Q256.12 15.61 256.10 16.17L256.10 16.17L256.10 16.17Q256.10 16.20 256.12 16.21L256.12 16.21L256.12 16.21Q256.07 16.23 256.02 16.23L256.02 16.23L256.02 16.23Q255.98 16.23 255.93 16.23L255.93 16.23L255.93 16.23Q255.29 16.23 254.79 16.07L254.79 16.07L254.79 16.07Q254.30 15.90 254.14 15.61L254.14 15.61L254.14 15.61Q253.85 14.43 253.65 13.34L253.65 13.34L253.65 13.34Q253.46 12.25 253.32 11.16L253.32 11.16L253.32 11.16Q253.19 10.07 253.11 8.95L253.11 8.95L253.11 8.95Q253.04 7.84 252.99 6.62L252.99 6.62L252.99 6.62Q252.73 7.04 252.43 7.72L252.43 7.72L252.43 7.72Q252.14 8.40 251.86 9.21L251.86 9.21L251.86 9.21Q251.58 10.02 251.32 10.92L251.32 10.92L251.32 10.92Q251.06 11.82 250.87 12.67L250.87 12.67L250.87 12.67Q250.67 13.52 250.56 14.29L250.56 14.29L250.56 14.29Q250.45 15.05 250.45 15.61L250.45 15.61L250.45 15.61Q250.45 15.90 250.45 16.03L250.45 16.03L250.45 16.03Q250.46 16.16 250.49 16.24ZM274.93 5.74L274.93 5.74L274.93 5.74Q274.97 5.98 275.00 6.07L275.00 6.07L275.00 6.07Q275.02 6.16 275.02 6.31L275.02 6.31L275.02 6.31Q275.02 6.78 274.81 7.18L274.81 7.18L274.81 7.18Q274.61 7.57 274.26 7.74L274.26 7.74L274.26 7.74Q273.98 7.36 273.57 7.09L273.57 7.09L273.57 7.09Q273.17 6.82 272.69 6.64L272.69 6.64L272.69 6.64Q272.20 6.47 271.68 6.38L271.68 6.38L271.68 6.38Q271.17 6.30 270.68 6.30L270.68 6.30L270.68 6.30Q270.19 6.30 269.76 6.38L269.76 6.38L269.76 6.38Q269.33 6.45 269.00 6.59L269.00 6.59L269.00 6.59Q268.67 6.72 268.49 6.92L268.49 6.92L268.49 6.92Q268.30 7.11 268.30 7.36L268.30 7.36L268.30 7.36Q268.34 7.67 268.67 7.99L268.67 7.99L268.67 7.99Q269.01 8.30 269.50 8.60L269.50 8.60L269.50 8.60Q269.99 8.90 270.58 9.20L270.58 9.20L270.58 9.20Q271.18 9.49 271.75 9.76L271.75 9.76L271.75 9.76Q272.47 10.09 272.99 10.38L272.99 10.38L272.99 10.38Q273.50 10.67 273.84 11.01L273.84 11.01L273.84 11.01Q274.18 11.35 274.34 11.79L274.34 11.79L274.34 11.79Q274.51 12.22 274.51 12.84L274.51 12.84L274.51 12.84Q274.51 13.55 274.27 14.18L274.27 14.18L274.27 14.18Q274.04 14.80 273.58 15.26L273.58 15.26L273.58 15.26Q273.13 15.72 272.48 15.98L272.48 15.98L272.48 15.98Q271.84 16.24 271.04 16.24L271.04 16.24L271.04 16.24Q270.26 16.24 269.35 16.00L269.35 16.00L269.35 16.00Q268.44 15.76 267.64 15.35L267.64 15.35L267.64 15.35Q266.85 14.94 266.33 14.40L266.33 14.40L266.33 14.40Q265.80 13.86 265.80 13.26L265.80 13.26L265.80 13.26Q265.80 12.98 265.96 12.54L265.96 12.54L265.96 12.54Q266.13 12.11 266.55 11.63L266.55 11.63L266.55 11.63Q266.59 12.05 267.00 12.63L267.00 12.63L267.00 12.63Q267.41 13.20 268.24 13.69L268.24 13.69L268.24 13.69Q269.01 14.14 269.83 14.34L269.83 14.34L269.83 14.34Q270.65 14.55 271.36 14.55L271.36 14.55L271.36 14.55Q272.15 14.55 272.64 14.35L272.64 14.35L272.64 14.35Q273.13 14.15 273.41 13.88L273.41 13.88L273.41 13.88Q273.69 13.61 273.80 13.33L273.80 13.33L273.80 13.33Q273.91 13.05 273.92 12.88L273.92 12.88L273.92 12.88Q273.91 12.60 273.66 12.34L273.66 12.34L273.66 12.34Q273.42 12.08 273.01 11.84L273.01 11.84L273.01 11.84Q272.59 11.59 272.05 11.34L272.05 11.34L272.05 11.34Q271.50 11.09 270.91 10.84L270.91 10.84L270.91 10.84Q270.03 10.44 269.39 10.10L269.39 10.10L269.39 10.10Q268.76 9.76 268.34 9.40L268.34 9.40L268.34 9.40Q267.93 9.04 267.74 8.65L267.74 8.65L267.74 8.65Q267.55 8.26 267.55 7.76L267.55 7.76L267.55 7.76Q267.55 6.97 268.03 6.27L268.03 6.27L268.03 6.27Q268.51 5.57 269.40 5.21L269.40 5.21L269.40 5.21Q269.85 5.01 270.36 4.93L270.36 4.93L270.36 4.93Q270.87 4.84 271.36 4.84L271.36 4.84L271.36 4.84Q272.29 4.84 273.17 5.10L273.17 5.10L273.17 5.10Q274.05 5.35 274.93 5.74ZM298.34 5.75L298.34 5.75L298.34 5.75Q297.72 6.58 297.22 7.57L297.22 7.57L297.22 7.57Q296.72 8.57 296.36 9.61L296.36 9.61L296.36 9.61Q296.00 10.65 295.81 11.67L295.81 11.67L295.81 11.67Q295.62 12.68 295.62 13.57L295.62 13.57L295.62 13.57Q295.62 14.66 295.95 15.15L295.95 15.15L295.95 15.15Q296.27 15.64 297.05 15.64L297.05 15.64L297.05 15.64Q297.96 15.64 298.65 15.00L298.65 15.00L298.65 15.00Q299.33 14.36 299.94 13.24L299.94 13.24L299.94 13.24Q300.33 12.52 300.61 11.65L300.61 11.65L300.61 11.65Q300.89 10.78 301.06 9.86L301.06 9.86L301.06 9.86Q301.24 8.95 301.32 8.02L301.32 8.02L301.32 8.02Q301.41 7.08 301.41 6.23L301.41 6.23L301.41 6.23Q301.41 5.68 301.39 5.43L301.39 5.43L301.39 5.43Q301.38 5.18 301.35 5.03L301.35 5.03L301.35 5.03Q301.39 5.03 301.56 5.05L301.56 5.05L301.56 5.05Q301.73 5.08 301.94 5.12L301.94 5.12L301.94 5.12Q302.16 5.17 302.38 5.24L302.38 5.24L302.38 5.24Q302.60 5.31 302.75 5.39L302.75 5.39L302.75 5.39Q302.68 6.45 302.49 7.59L302.49 7.59L302.49 7.59Q302.30 8.72 301.99 9.83L301.99 9.83L301.99 9.83Q301.69 10.93 301.28 11.96L301.28 11.96L301.28 11.96Q300.87 12.98 300.37 13.79L300.37 13.79L300.37 13.79Q299.63 14.99 298.70 15.67L298.70 15.67L298.70 15.67Q297.78 16.35 296.52 16.35L296.52 16.35L296.52 16.35Q295.23 16.35 294.52 15.60L294.52 15.60L294.52 15.60Q293.80 14.85 293.80 13.33L293.80 13.33L293.80 13.33Q293.80 12.45 294.00 11.33L294.00 11.33L294.00 11.33Q294.20 10.22 294.52 9.07L294.52 9.07L294.52 9.07Q294.85 7.91 295.29 6.81L295.29 6.81L295.29 6.81Q295.72 5.71 296.20 4.84L296.20 4.84L296.20 4.84Q296.44 4.86 296.76 4.94L296.76 4.94L296.76 4.94Q297.08 5.03 297.39 5.16L297.39 5.16L297.39 5.16Q297.70 5.29 297.95 5.45L297.95 5.45L297.95 5.45Q298.21 5.61 298.34 5.75ZM310.97 16.24L310.97 16.24L310.97 16.24Q310.17 16.00 309.89 15.79L309.89 15.79L309.89 15.79Q309.61 15.57 309.61 15.19L309.61 15.19L309.61 15.19Q309.61 14.77 309.81 14.01L309.81 14.01L309.81 14.01Q310.00 13.24 310.32 12.31L310.32 12.31L310.32 12.31Q310.63 11.37 311.04 10.35L311.04 10.35L311.04 10.35Q311.44 9.32 311.86 8.39L311.86 8.39L311.86 8.39Q312.28 7.45 312.68 6.67L312.68 6.67L312.68 6.67Q313.08 5.89 313.39 5.46L313.39 5.46L313.29 4.87L313.29 4.87Q313.49 4.87 313.84 4.97L313.84 4.97L313.84 4.97Q314.19 5.07 314.54 5.21L314.54 5.21L314.54 5.21Q314.90 5.35 315.17 5.49L315.17 5.49L315.17 5.49Q315.45 5.64 315.48 5.74L315.48 5.74L315.48 5.74Q315.41 6.08 315.36 6.76L315.36 6.76L315.36 6.76Q315.32 7.43 315.32 8.20L315.32 8.20L315.32 8.20Q315.32 9.73 315.44 11.19L315.44 11.19L315.44 11.19Q315.56 12.66 315.99 14.17L315.99 14.17L315.99 14.17Q316.22 13.05 316.48 11.94L316.48 11.94L316.48 11.94Q316.74 10.82 317.02 9.81L317.02 9.81L317.02 9.81Q317.30 8.79 317.58 7.92L317.58 7.92L317.58 7.92Q317.86 7.06 318.11 6.40L318.11 6.40L318.11 6.40Q318.37 5.75 318.60 5.38L318.60 5.38L318.60 5.38Q318.82 5.01 319.00 4.98L319.00 4.98L319.00 4.98Q319.16 5.01 319.34 5.10L319.34 5.10L319.34 5.10Q319.52 5.19 319.69 5.32L319.69 5.32L319.69 5.32Q319.86 5.45 320.00 5.60L320.00 5.60L320.00 5.60Q320.14 5.75 320.22 5.91L320.22 5.91L320.22 5.91Q319.77 6.09 319.33 6.76L319.33 6.76L319.33 6.76Q318.89 7.43 318.49 8.39L318.49 8.39L318.49 8.39Q318.09 9.35 317.75 10.47L317.75 10.47L317.75 10.47Q317.41 11.59 317.15 12.68L317.15 12.68L317.15 12.68Q316.89 13.76 316.74 14.69L316.74 14.69L316.74 14.69Q316.60 15.61 316.58 16.17L316.58 16.17L316.58 16.17Q316.58 16.20 316.60 16.21L316.60 16.21L316.60 16.21Q316.55 16.23 316.50 16.23L316.50 16.23L316.50 16.23Q316.46 16.23 316.41 16.23L316.41 16.23L316.41 16.23Q315.77 16.23 315.27 16.07L315.27 16.07L315.27 16.07Q314.78 15.90 314.62 15.61L314.62 15.61L314.62 15.61Q314.33 14.43 314.13 13.34L314.13 13.34L314.13 13.34Q313.94 12.25 313.80 11.16L313.80 11.16L313.80 11.16Q313.67 10.07 313.59 8.95L313.59 8.95L313.59 8.95Q313.52 7.84 313.47 6.62L313.47 6.62L313.47 6.62Q313.21 7.04 312.91 7.72L312.91 7.72L312.91 7.72Q312.62 8.40 312.34 9.21L312.34 9.21L312.34 9.21Q312.06 10.02 311.80 10.92L311.80 10.92L311.80 10.92Q311.54 11.82 311.35 12.67L311.35 12.67L311.35 12.67Q311.15 13.52 311.04 14.29L311.04 14.29L311.04 14.29Q310.93 15.05 310.93 15.61L310.93 15.61L310.93 15.61Q310.93 15.90 310.93 16.03L310.93 16.03L310.93 16.03Q310.94 16.16 310.97 16.24ZM332.15 9.34L332.15 9.34L332.15 9.34Q332.60 9.34 332.86 9.59L332.86 9.59L332.86 9.59Q333.12 9.84 333.12 10.29L333.12 10.29L333.12 10.29Q333.12 10.40 333.10 10.52L333.10 10.52L333.10 10.52Q333.09 10.64 333.05 10.72L333.05 10.72L333.05 10.72Q332.86 10.70 332.64 10.68L332.64 10.68L332.64 10.68Q332.42 10.65 332.11 10.65L332.11 10.65L332.11 10.65Q331.48 10.65 330.85 10.77L330.85 10.77L330.85 10.77Q330.22 10.88 329.64 10.95L329.64 10.95L329.64 10.95Q329.01 12.43 328.61 13.73L328.61 13.73L328.61 13.73Q328.20 15.04 327.98 16.31L327.98 16.31L327.98 16.31Q327.50 16.20 327.14 15.90L327.14 15.90L327.14 15.90Q326.77 15.61 326.45 15.08L326.45 15.08L326.45 15.08Q326.55 14.85 326.69 14.54L326.69 14.54L326.69 14.54Q326.83 14.22 327.03 13.74L327.03 13.74L327.03 13.74Q327.22 13.26 327.49 12.56L327.49 12.56L327.49 12.56Q327.77 11.87 328.15 10.91L328.15 10.91L328.15 10.91Q327.56 10.71 327.38 10.22L327.38 10.22L327.38 10.22Q327.45 10.15 327.77 10.06L327.77 10.06L327.77 10.06Q328.09 9.97 328.55 9.86L328.55 9.86L328.55 9.86Q328.76 9.31 328.92 8.88L328.92 8.88L328.92 8.88Q329.07 8.46 329.20 8.07L329.20 8.07L329.20 8.07Q329.32 7.69 329.43 7.32L329.43 7.32L329.43 7.32Q329.53 6.94 329.62 6.52L329.62 6.52L329.55 6.52L329.55 6.52Q329.01 6.52 328.68 6.27L328.68 6.27L328.68 6.27Q328.36 6.02 328.36 5.61L328.36 5.61L328.36 5.61Q328.36 5.50 328.39 5.35L328.39 5.35L328.39 5.35Q328.43 5.19 328.48 5.08L328.48 5.08L328.48 5.08Q328.75 5.12 329.01 5.14L329.01 5.14L329.01 5.14Q329.27 5.15 329.69 5.15L329.69 5.15L329.69 5.15Q330.57 5.15 331.34 5.10L331.34 5.10L331.34 5.10Q332.11 5.05 332.73 5.00L332.73 5.00L332.73 5.00Q333.35 4.94 333.80 4.89L333.80 4.89L333.80 4.89Q334.25 4.84 334.49 4.84L334.49 4.84L334.49 4.84Q334.81 4.84 335.06 5.18L335.06 5.18L335.06 5.18Q335.31 5.52 335.45 6.13L335.45 6.13L335.45 6.13Q335.01 6.09 334.73 6.08L334.73 6.08L334.73 6.08Q334.46 6.06 334.25 6.06L334.25 6.06L334.25 6.06Q333.54 6.06 332.94 6.13L332.94 6.13L332.94 6.13Q332.35 6.19 331.81 6.27L331.81 6.27L331.81 6.27Q331.73 6.40 331.62 6.59L331.62 6.59L331.62 6.59Q331.52 6.79 331.35 7.15L331.35 7.15L331.35 7.15Q331.18 7.50 330.92 8.08L330.92 8.08L330.92 8.08Q330.67 8.65 330.27 9.53L330.27 9.53L330.27 9.53Q330.82 9.45 331.32 9.39L331.32 9.39L331.32 9.39Q331.81 9.34 332.15 9.34ZM347.45 4.98L347.45 4.98L347.45 4.98Q347.72 5.10 348.00 5.27L348.00 5.27L348.00 5.27Q348.28 5.45 348.52 5.63L348.52 5.63L348.52 5.63Q348.75 5.81 348.91 5.98L348.91 5.98L348.91 5.98Q349.08 6.16 349.09 6.27L349.09 6.27L349.09 6.27Q348.85 6.22 348.61 6.20L348.61 6.20L348.61 6.20Q348.38 6.17 348.18 6.17L348.18 6.17L348.18 6.17Q347.55 6.17 346.93 6.48L346.93 6.48L346.93 6.48Q346.30 6.79 345.74 7.32L345.74 7.32L345.74 7.32Q345.18 7.85 344.71 8.57L344.71 8.57L344.71 8.57Q344.23 9.28 343.89 10.09L343.89 10.09L343.89 10.09Q343.55 10.91 343.35 11.77L343.35 11.77L343.35 11.77Q343.15 12.64 343.15 13.48L343.15 13.48L343.15 13.48Q343.15 14.57 343.52 15.11L343.52 15.11L343.52 15.11Q343.88 15.64 344.58 15.64L344.58 15.64L344.58 15.64Q344.92 15.64 345.31 15.51L345.31 15.51L345.31 15.51Q345.70 15.37 346.11 15.13L346.11 15.13L346.11 15.13Q346.51 14.90 346.91 14.56L346.91 14.56L346.91 14.56Q347.30 14.22 347.63 13.82L347.63 13.82L347.63 13.82Q348.12 13.23 348.52 12.48L348.52 12.48L348.52 12.48Q348.91 11.73 349.18 10.89L349.18 10.89L349.18 10.89Q349.45 10.05 349.60 9.16L349.60 9.16L349.60 9.16Q349.75 8.27 349.75 7.42L349.75 7.42L349.75 7.42Q349.75 7.08 349.73 6.85L349.73 6.85L349.73 6.85Q349.72 6.62 349.70 6.46L349.70 6.46L349.70 6.46Q349.68 6.30 349.66 6.20L349.66 6.20L349.66 6.20Q349.65 6.10 349.64 6.03L349.64 6.03L349.64 6.03Q349.80 6.12 350.01 6.24L350.01 6.24L350.01 6.24Q350.21 6.36 350.38 6.59L350.38 6.59L350.38 6.59Q350.56 6.82 350.68 7.20L350.68 7.20L350.68 7.20Q350.80 7.57 350.80 8.18L350.80 8.18L350.80 8.18Q350.80 9.16 350.57 10.10L350.57 10.10L350.57 10.10Q350.34 11.05 349.92 11.90L349.92 11.90L349.92 11.90Q349.51 12.75 348.95 13.50L348.95 13.50L348.95 13.50Q348.39 14.24 347.75 14.80L347.75 14.80L347.75 14.80Q346.91 15.54 345.95 15.95L345.95 15.95L345.95 15.95Q345.00 16.35 344.12 16.35L344.12 16.35L344.12 16.35Q342.83 16.35 342.15 15.53L342.15 15.53L342.15 15.53Q341.47 14.71 341.47 13.12L341.47 13.12L341.47 13.12Q341.47 12.26 341.66 11.31L341.66 11.31L341.66 11.31Q341.85 10.36 342.19 9.44L342.19 9.44L342.19 9.44Q342.54 8.51 343.01 7.68L343.01 7.68L343.01 7.68Q343.49 6.85 344.06 6.21L344.06 6.21L344.06 6.21Q344.62 5.57 345.27 5.19L345.27 5.19L345.27 5.19Q345.93 4.82 346.61 4.82L346.61 4.82L346.61 4.82Q346.84 4.82 347.03 4.85L347.03 4.85L347.03 4.85Q347.23 4.89 347.45 4.98ZM363.33 14.38L363.33 14.38L363.33 14.38Q363.68 14.98 363.68 15.54L363.68 15.54L363.68 15.54Q363.68 15.67 363.66 15.77L363.66 15.77L363.66 15.77Q363.64 15.88 363.61 15.99L363.61 15.99L363.61 15.99Q363.37 15.96 363.11 15.95L363.11 15.95L363.11 15.95Q362.85 15.93 362.57 15.93L362.57 15.93L362.57 15.93Q362.24 15.93 361.89 15.95L361.89 15.95L361.89 15.95Q361.55 15.97 361.13 16.02L361.13 16.02L361.13 16.02Q360.71 16.06 360.19 16.13L360.19 16.13L360.19 16.13Q359.67 16.20 358.99 16.31L358.99 16.31L358.99 16.31Q358.67 16.20 358.34 15.87L358.34 15.87L358.34 15.87Q358.02 15.54 357.74 15.08L357.74 15.08L357.74 15.08Q357.88 14.77 358.09 14.31L358.09 14.31L358.09 14.31Q358.30 13.86 358.58 13.21L358.58 13.21L358.58 13.21Q358.86 12.56 359.20 11.68L359.20 11.68L359.20 11.68Q359.55 10.81 359.94 9.66L359.94 9.66L359.94 9.66Q360.19 8.90 360.37 8.33L360.37 8.33L360.37 8.33Q360.56 7.76 360.70 7.22L360.70 7.22L360.70 7.22Q360.85 6.68 360.99 6.09L360.99 6.09L360.99 6.09Q361.13 5.50 361.30 4.73L361.30 4.73L361.30 4.73Q361.86 4.84 362.27 5.14L362.27 5.14L362.27 5.14Q362.68 5.45 363.06 6.01L363.06 6.01L363.06 6.01Q362.95 6.19 362.77 6.59L362.77 6.59L362.77 6.59Q362.59 7 362.34 7.58L362.34 7.58L362.34 7.58Q362.10 8.16 361.80 8.90L361.80 8.90L361.80 8.90Q361.51 9.63 361.19 10.47L361.19 10.47L361.19 10.47Q360.88 11.30 360.58 12.03L360.58 12.03L360.58 12.03Q360.29 12.75 360.06 13.34L360.06 13.34L360.06 13.34Q359.83 13.93 359.69 14.35L359.69 14.35L359.69 14.35Q359.55 14.77 359.55 14.98L359.55 14.98L359.55 14.98Q359.77 14.97 359.95 14.95L359.95 14.95L359.95 14.95Q360.14 14.94 360.33 14.90L360.33 14.90L360.33 14.90Q360.53 14.87 360.76 14.82L360.76 14.82L360.76 14.82Q360.99 14.77 361.31 14.69L361.31 14.69L361.31 14.69Q361.59 14.62 361.83 14.57L361.83 14.57L361.83 14.57Q362.07 14.52 362.30 14.48L362.30 14.48L362.30 14.48Q362.53 14.45 362.77 14.43L362.77 14.43L362.77 14.43Q363.02 14.41 363.33 14.38ZM372.65 14.45L372.65 14.45L372.65 14.45Q372.86 13.99 373.16 13.26L373.16 13.26L373.16 13.26Q373.45 12.53 373.77 11.68L373.77 11.68L373.77 11.68Q374.09 10.84 374.43 9.95L374.43 9.95L374.43 9.95Q374.77 9.06 375.06 8.26L375.06 8.26L375.06 8.26Q375.35 7.46 375.57 6.83L375.57 6.83L375.57 6.83Q375.79 6.20 375.89 5.87L375.89 5.87L375.89 5.87Q375.00 6.23 374.37 6.97L374.37 6.97L374.37 6.97Q373.74 7.71 373.42 8.83L373.42 8.83L373.42 8.83Q373.10 8.72 372.83 8.43L372.83 8.43L372.83 8.43Q372.57 8.15 372.48 7.71L372.48 7.71L372.48 7.71Q372.62 7.07 373.01 6.54L373.01 6.54L373.01 6.54Q373.39 6.01 373.98 5.63L373.98 5.63L373.98 5.63Q374.57 5.25 375.34 5.05L375.34 5.05L375.34 5.05Q376.11 4.84 376.99 4.84L376.99 4.84L376.99 4.84Q378.11 4.84 379.05 5.17L379.05 5.17L379.05 5.17Q379.99 5.50 380.66 6.09L380.66 6.09L380.66 6.09Q381.33 6.68 381.71 7.50L381.71 7.50L381.71 7.50Q382.09 8.33 382.09 9.34L382.09 9.34L382.09 9.34Q382.09 10.71 381.58 11.96L381.58 11.96L381.58 11.96Q381.08 13.20 380.22 14.15L380.22 14.15L380.22 14.15Q379.36 15.11 378.22 15.67L378.22 15.67L378.22 15.67Q377.09 16.24 375.84 16.24L375.84 16.24L375.84 16.24Q374.70 16.24 373.88 15.79L373.88 15.79L373.88 15.79Q373.06 15.33 372.65 14.45ZM377.59 5.54L377.59 5.54L377.59 5.54Q376.89 5.54 376.26 5.74L376.26 5.74L376.26 5.74Q376.88 5.96 377.29 6.21L377.29 6.21L377.29 6.21Q377.69 6.45 377.85 6.59L377.85 6.59L377.85 6.59Q377.73 6.75 377.52 7.14L377.52 7.14L377.52 7.14Q377.30 7.53 377.01 8.09L377.01 8.09L377.01 8.09Q376.73 8.65 376.40 9.32L376.40 9.32L376.40 9.32Q376.08 9.98 375.77 10.68L375.77 10.68L375.77 10.68Q374.98 12.46 374.62 13.48L374.62 13.48L374.62 13.48Q374.26 14.50 374.26 14.90L374.26 14.90L374.26 14.90Q374.46 14.97 374.74 14.99L374.74 14.99L374.74 14.99Q375.02 15.02 375.34 15.02L375.34 15.02L375.34 15.02Q376.47 15.02 377.49 14.50L377.49 14.50L377.49 14.50Q378.50 13.97 379.27 13.09L379.27 13.09L379.27 13.09Q380.03 12.21 380.47 11.04L380.47 11.04L380.47 11.04Q380.91 9.87 380.91 8.58L380.91 8.58L380.91 8.58Q380.91 7.14 380.02 6.34L380.02 6.34L380.02 6.34Q379.12 5.54 377.59 5.54Z"></path></g></svg>